<svg width="50" height="50" viewBox="0 0 50 50" fill="none" xmlns="http://www.w3.org/2000/svg">
<g clip-path="url(#clip0_597_949)">
<path d="M19.7915 13.5417V19.7917H13.5415V13.5417H19.7915ZM22.9165 10.4167H10.4165V22.9167H22.9165V10.4167ZM19.7915 30.2084V36.4584H13.5415V30.2084H19.7915ZM22.9165 27.0834H10.4165V39.5834H22.9165V27.0834ZM36.4582 13.5417V19.7917H30.2082V13.5417H36.4582ZM39.5832 10.4167H27.0832V22.9167H39.5832V10.4167ZM27.0832 27.0834H30.2082V30.2084H27.0832V27.0834ZM30.2082 30.2084H33.3332V33.3334H30.2082V30.2084ZM33.3332 27.0834H36.4582V30.2084H33.3332V27.0834ZM27.0832 33.3334H30.2082V36.4584H27.0832V33.3334ZM30.2082 36.4584H33.3332V39.5834H30.2082V36.4584ZM33.3332 33.3334H36.4582V36.4584H33.3332V33.3334ZM36.4582 30.2084H39.5832V33.3334H36.4582V30.2084ZM36.4582 36.4584H39.5832V39.5834H36.4582V36.4584ZM45.8332 14.5834H41.6665V8.33341H35.4165V4.16675H45.8332V14.5834ZM45.8332 45.8334V35.4167H41.6665V41.6667H35.4165V45.8334H45.8332ZM4.1665 45.8334H14.5832V41.6667H8.33317V35.4167H4.1665V45.8334ZM4.1665 4.16675V14.5834H8.33317V8.33341H14.5832V4.16675H4.1665Z" fill="#041C2E"/>
</g>
<defs>
<clipPath id="clip0_597_949">
<rect width="50" height="50" fill="white"/>
</clipPath>
</defs>
</svg>
