<svg width="34" height="30" viewBox="0 0 34 30" fill="none" xmlns="http://www.w3.org/2000/svg">
<path d="M32.0002 15.3667C32.0002 6.21667 24.9002 0 17.0002 0C9.1835 0 2.00016 6.08333 2.00016 15.4667C1.00016 16.0333 0.333496 17.1 0.333496 18.3333V21.6667C0.333496 23.5 1.8335 25 3.66683 25C4.5835 25 5.3335 24.25 5.3335 23.3333V15.3167C5.3335 8.93333 10.2502 3.35 16.6335 3.16667C23.2335 2.96667 28.6668 8.26667 28.6668 14.8333V26.6667H17.0002C16.0835 26.6667 15.3335 27.4167 15.3335 28.3333C15.3335 29.25 16.0835 30 17.0002 30H28.6668C30.5002 30 32.0002 28.5 32.0002 26.6667V24.6333C32.9835 24.1167 33.6668 23.1 33.6668 21.9V18.0667C33.6668 16.9 32.9835 15.8833 32.0002 15.3667Z" fill="#051C2F"/>
<path d="M12.0002 18.3333C12.9206 18.3333 13.6668 17.5872 13.6668 16.6667C13.6668 15.7462 12.9206 15 12.0002 15C11.0797 15 10.3335 15.7462 10.3335 16.6667C10.3335 17.5872 11.0797 18.3333 12.0002 18.3333Z" fill="#051C2F"/>
<path d="M22.0002 18.3333C22.9207 18.3333 23.6668 17.5872 23.6668 16.6667C23.6668 15.7462 22.9207 15 22.0002 15C21.0797 15 20.3335 15.7462 20.3335 16.6667C20.3335 17.5872 21.0797 18.3333 22.0002 18.3333Z" fill="#051C2F"/>
<path d="M27.0002 13.3833C26.2002 8.63333 22.0669 5 17.0836 5C12.0336 5 6.60027 9.18333 7.03361 15.75C11.1503 14.0667 14.2502 10.4 15.1336 5.93333C17.3169 10.3167 21.8002 13.3333 27.0002 13.3833Z" fill="#051C2F"/>
</svg>
