<svg width="34" height="34" viewBox="0 0 34 34" fill="none" xmlns="http://www.w3.org/2000/svg">
<path d="M17.0002 0.333252C7.80016 0.333252 0.333496 7.79992 0.333496 16.9999C0.333496 26.1999 7.80016 33.6666 17.0002 33.6666C26.2002 33.6666 33.6668 26.1999 33.6668 16.9999C33.6668 7.79992 26.2002 0.333252 17.0002 0.333252ZM17.0002 25.3333C16.0835 25.3333 15.3335 24.5833 15.3335 23.6666V16.9999C15.3335 16.0833 16.0835 15.3333 17.0002 15.3333C17.9168 15.3333 18.6668 16.0833 18.6668 16.9999V23.6666C18.6668 24.5833 17.9168 25.3333 17.0002 25.3333ZM18.6668 11.9999H15.3335V8.66659H18.6668V11.9999Z" fill="#051C2F"/>
</svg>
