<svg width="34" height="34" viewBox="0 0 34 34" fill="none" xmlns="http://www.w3.org/2000/svg">
<path d="M17.0002 0.333252C7.80016 0.333252 0.333496 7.79992 0.333496 16.9999C0.333496 26.1999 7.80016 33.6666 17.0002 33.6666C26.2002 33.6666 33.6668 26.1999 33.6668 16.9999C33.6668 7.79992 26.2002 0.333252 17.0002 0.333252ZM17.0002 5.33325C19.7668 5.33325 22.0002 7.56659 22.0002 10.3333C22.0002 13.0999 19.7668 15.3333 17.0002 15.3333C14.2335 15.3333 12.0002 13.0999 12.0002 10.3333C12.0002 7.56659 14.2335 5.33325 17.0002 5.33325ZM17.0002 28.9999C12.8335 28.9999 9.15016 26.8666 7.00016 23.6333C7.05016 20.3166 13.6668 18.4999 17.0002 18.4999C20.3168 18.4999 26.9502 20.3166 27.0002 23.6333C24.8502 26.8666 21.1668 28.9999 17.0002 28.9999Z" fill="#051C2F"/>
</svg>
