<svg width="93" height="95" viewBox="0 0 93 95" fill="none" xmlns="http://www.w3.org/2000/svg">
<g clip-path="url(#clip0_30_17)">
<path d="M10 29.5C30 -2.90001 58.3333 6.99999 70 16C75.6 16.8 74.6667 13.3333 73.5 11.5C66.3 3.09999 53.8333 0.999993 48.5 0.999993C24.9 -0.200006 13 19.5 10 29.5Z" fill="#E5CF00" stroke="#E5CF00" stroke-width="0.5"/>
<path d="M78.5919 13.9687C78.9494 13.1938 80.0506 13.1938 80.4081 13.9687L81.6637 16.6909C81.8094 17.0067 82.1087 17.2242 82.454 17.2651L85.4311 17.6181C86.2785 17.7186 86.6188 18.766 85.9923 19.3453L83.7913 21.3807C83.5359 21.6169 83.4216 21.9687 83.4894 22.3098L84.0737 25.2502C84.24 26.0872 83.349 26.7345 82.6044 26.3177L79.9884 24.8534C79.685 24.6835 79.315 24.6835 79.0116 24.8534L76.3956 26.3177C75.651 26.7345 74.76 26.0872 74.9263 25.2502L75.5106 22.3098C75.5784 21.9687 75.4641 21.6169 75.2087 21.3807L73.0077 19.3453C72.3812 18.766 72.7215 17.7186 73.5689 17.6181L76.546 17.2651C76.8913 17.2242 77.1906 17.0067 77.3363 16.6909L78.5919 13.9687Z" fill="#E5CF00"/>
<path d="M28 38C32.4183 38 36 34.4183 36 30C36 25.5817 32.4183 22 28 22C23.5817 22 20 25.5817 20 30C20 34.4183 23.5817 38 28 38Z" fill="#FF6801"/>
<path d="M49 69C51.7614 69 54 66.7614 54 64C54 61.2386 51.7614 59 49 59C46.2386 59 44 61.2386 44 64C44 66.7614 46.2386 69 49 69Z" fill="#0571B9"/>
<path d="M69 48C72.3137 48 75 45.3137 75 42C75 38.6863 72.3137 36 69 36C65.6863 36 63 38.6863 63 42C63 45.3137 65.6863 48 69 48Z" fill="#01C9A1"/>
<path d="M47.9045 35.0891C30.8655 46.1399 12.592 39.7475 4.2646 34.3636C3.41717 33.8157 2.25475 33.0937 1.54603 33.8121C0.612653 34.7582 1.96653 37.4498 2.99998 39C11.4 48.6 14.5 58.3333 15 62V73.5C14.717 76.8963 15.7523 77.9896 16.7953 78.1615C17.5971 78.2937 18.3292 77.7685 18.8722 77.164C23.0815 72.4784 41.0888 49.2495 50.5 37C51.1688 35.9968 51.2785 35.308 51.1066 34.8462C50.6688 33.6703 48.9573 34.4064 47.9045 35.0891Z" fill="#FF6801" stroke="#FF6801" stroke-width="0.5"/>
<path d="M52.7534 45.3749C66.9364 54.6718 82.1365 49.4428 89.2351 44.8977C90.0914 44.3495 91.4302 43.5871 91.8833 44.4973C92.3504 45.4354 91.3173 47.4813 90.5142 48.6988C83.4505 56.8579 80.8437 65.1304 80.4232 68.2467V78.0207C80.6612 80.9072 79.7906 81.8364 78.9135 81.9825C78.2393 82.0948 77.6237 81.6485 77.167 81.1348C73.6274 77.1524 58.4848 57.41 50.5708 46.999C50.0084 46.1463 49.9162 45.5609 50.0607 45.1684C50.4289 44.169 51.8681 44.7946 52.7534 45.3749Z" fill="#01C9A1" stroke="#01C9A1" stroke-width="0.5"/>
<path d="M60.9678 67.0131C50.7206 73.7186 39.7542 70.1686 34.381 66.8744C33.5152 66.3437 32.0237 65.7429 32.0004 66.7582C31.9827 67.5276 32.5994 68.7097 33.0967 69.4623C38.3103 75.4742 40.2344 81.5697 40.5448 83.866V91.0679C40.3691 93.1948 41.0117 93.8795 41.6591 93.9871C42.1567 94.0699 42.6111 93.741 42.9481 93.3625C45.5607 90.4281 56.7374 75.881 62.5787 68.2098C62.9938 67.5815 63.0619 67.1502 62.9552 66.8609C62.6835 66.1245 61.6212 66.5855 60.9678 67.0131Z" fill="#0571B9" stroke="#0571B9" stroke-width="0.5"/>
</g>
<defs>
<clipPath id="clip0_30_17">
<rect width="93" height="95" fill="white"/>
</clipPath>
</defs>
</svg>
