<svg width="39" height="41" viewBox="0 0 39 41" fill="none" xmlns="http://www.w3.org/2000/svg">
<rect x="0.5" y="0.5" width="38" height="40" rx="9.5" stroke="#D8DADC"/>
<path d="M15 20.4955C15 20.6499 15.0265 20.7923 15.0796 20.9229C15.1385 21.0535 15.2269 21.1782 15.3448 21.2969L22.2318 28.0818C22.4322 28.2837 22.6739 28.3846 22.9568 28.3846C23.1513 28.3846 23.3251 28.3371 23.4784 28.2421C23.6375 28.1531 23.7642 28.0284 23.8585 27.8681C23.9528 27.7138 24 27.5417 24 27.3517C24 27.0668 23.891 26.8145 23.6729 26.5949L17.4666 20.4955L23.6729 14.3962C23.891 14.1765 24 13.9272 24 13.6482C24 13.4523 23.9528 13.2772 23.8585 13.1229C23.7642 12.9686 23.6375 12.8469 23.4784 12.7578C23.3251 12.6628 23.1513 12.6154 22.9568 12.6154C22.6739 12.6154 22.4322 12.7133 22.2318 12.9092L15.3448 19.6941C15.2269 19.8129 15.1385 19.9375 15.0796 20.0681C15.0265 20.1987 15 20.3412 15 20.4955Z" fill="black"/>
</svg>
