<svg width="30" height="30" viewBox="0 0 30 30" fill="none" xmlns="http://www.w3.org/2000/svg">
<g opacity="0.76">
<circle cx="15" cy="15" r="15" fill="#00284D"/>
<g clip-path="url(#clip0_1164_1326)">
<path d="M22.6087 9.78243H20.5217L19.3696 8.0433C18.9348 7.39112 18.1739 6.99982 17.3913 6.99982H12.6087C11.8261 6.99982 11.0652 7.39112 10.6304 8.0433L9.47826 9.78243H7.3913C6.06522 9.78243 5 10.8476 5 12.1737V20.6085C5 21.9346 6.06522 22.9998 7.3913 22.9998H22.6087C23.9348 22.9998 25 21.9346 25 20.6085V12.1737C25 10.8476 23.9348 9.78243 22.6087 9.78243ZM15 21.0433C12.0217 21.0433 9.6087 18.6303 9.6087 15.652C9.6087 12.6737 12.0217 10.2824 15 10.2824C17.9783 10.2824 20.3913 12.6955 20.3913 15.6737C20.3913 18.6303 17.9783 21.0433 15 21.0433ZM22.3043 13.152C22.2826 13.152 22.2609 13.152 22.2174 13.152H21.3478C20.9565 13.1303 20.6522 12.8042 20.6739 12.4129C20.6957 12.0433 20.9783 11.7607 21.3478 11.7389H22.2174C22.6087 11.7172 22.9348 12.0216 22.9565 12.4129C22.9783 12.8042 22.6957 13.1303 22.3043 13.152Z" fill="#DFE6E9"/>
<path d="M15 12.674C13.3478 12.674 12 14.0218 12 15.6739C12 17.3261 13.3478 18.6522 15 18.6522C16.6522 18.6522 18 17.3044 18 15.6522C18 14 16.6522 12.674 15 12.674Z" fill="#DFE6E9"/>
</g>
</g>
<defs>
<clipPath id="clip0_1164_1326">
<rect width="20" height="20" fill="white" transform="translate(5 5)"/>
</clipPath>
</defs>
</svg>
