<svg width="26" height="26" viewBox="0 0 26 26" fill="none" xmlns="http://www.w3.org/2000/svg">
<g clip-path="url(#clip0_411_412)">
<mask id="mask0_411_412" style="mask-type:luminance" maskUnits="userSpaceOnUse" x="0" y="0" width="26" height="26">
<path d="M26 0H0V26H26V0Z" fill="white"/>
</mask>
<g mask="url(#mask0_411_412)">
<path d="M20.4967 6.51079C20.28 5.87163 19.6733 5.41663 18.9583 5.41663H7.04167C6.32667 5.41663 5.73083 5.87163 5.50333 6.51079L3.36917 12.6533C3.29333 12.8808 3.25 13.1191 3.25 13.3683V21.125C3.25 22.0241 3.97583 22.75 4.875 22.75C5.77417 22.75 6.5 22.0241 6.5 21.125V20.5833H19.5V21.125C19.5 22.0133 20.2258 22.75 21.125 22.75C22.0133 22.75 22.75 22.0241 22.75 21.125V13.3683C22.75 13.13 22.7067 12.8808 22.6308 12.6533L20.4967 6.51079ZM7.04167 17.3333C6.1425 17.3333 5.41667 16.6075 5.41667 15.7083C5.41667 14.8091 6.1425 14.0833 7.04167 14.0833C7.94083 14.0833 8.66667 14.8091 8.66667 15.7083C8.66667 16.6075 7.94083 17.3333 7.04167 17.3333ZM18.9583 17.3333C18.0592 17.3333 17.3333 16.6075 17.3333 15.7083C17.3333 14.8091 18.0592 14.0833 18.9583 14.0833C19.8575 14.0833 20.5833 14.8091 20.5833 15.7083C20.5833 16.6075 19.8575 17.3333 18.9583 17.3333ZM5.41667 11.9166L6.7925 7.77829C6.94417 7.34496 7.35583 7.04163 7.82167 7.04163H18.1783C18.6442 7.04163 19.0558 7.34496 19.2075 7.77829L20.5833 11.9166H5.41667Z" fill="#1E1E1E"/>
</g>
</g>
<defs>
<clipPath id="clip0_411_412">
<rect width="26" height="26" fill="white"/>
</clipPath>
</defs>
</svg>
