<svg width="14" height="14" viewBox="0 0 14 14" fill="none" xmlns="http://www.w3.org/2000/svg">
<path d="M13.2998 0.709971C12.9098 0.319971 12.2798 0.319971 11.8898 0.709971L6.99976 5.59L2.10973 0.699971C1.71973 0.309971 1.08973 0.309971 0.699727 0.699971C0.309727 1.08997 0.309727 1.71997 0.699727 2.10997L5.58976 7L0.699727 11.89C0.309727 12.28 0.309727 12.91 0.699727 13.3C1.08973 13.69 1.71973 13.69 2.10973 13.3L6.99976 8.41L11.8898 13.3C12.2798 13.69 12.9098 13.69 13.2998 13.3C13.6898 12.91 13.6898 12.28 13.2998 11.89L8.40976 7L13.2998 2.10997C13.6798 1.72997 13.6798 1.08997 13.2998 0.709971Z" fill="black"/>
</svg>
