<svg width="256" height="241" viewBox="0 0 256 241" fill="none" xmlns="http://www.w3.org/2000/svg">
<g filter="url(#filter0_d_187_77)">
<path d="M225.771 89.4803L222.368 91.6264L205.422 102.267L132.826 147.825L131.91 148.429L131.713 148.55L128.016 150.878L127.886 150.939L124.843 149.034L124.286 148.671L55.5179 105.502L50.8399 102.57L30.2289 89.6312L30 89.4803L50.8399 76.3905L125.53 29.5032H130.241L205.422 76.6925L207.908 78.2647L225.771 89.4803Z" fill="#C0874A"/>
<path d="M209.102 29.1499V176.097C209.102 179.468 206.086 182.216 202.349 182.216H53.8455C50.1433 182.216 47.1267 179.468 47.1267 176.097V29.1499C47.1267 25.7471 50.1433 23 53.8455 23H202.349C206.085 23 209.102 25.7471 209.102 29.1499Z" fill="#00284C"/>
<path d="M145.339 51.7496H72.4106V61.4646H145.339V51.7496Z" fill="#3E3800"/>
<path d="M145.339 50.2153H72.4106V59.9303H145.339V50.2153Z" fill="#E5CF00"/>
<path d="M183.235 105.183H72.4106V114.898H183.235V105.183Z" fill="#3E3800"/>
<path d="M183.235 103.649H72.4106V113.364H183.235V103.649Z" fill="#E5CF00"/>
<path d="M183.235 131.9H72.4106V141.615H183.235V131.9Z" fill="#3E3800"/>
<path d="M183.235 130.366H72.4106V140.081H183.235V130.366Z" fill="#E5CF00"/>
<path d="M183.235 78.4661H72.4106V88.1811H183.235V78.4661Z" fill="#3E3800"/>
<path d="M183.235 76.9322H72.4106V86.6472H183.235V76.9322Z" fill="#E5CF00"/>
<path d="M128.114 146.311L126.969 146.986L104.821 159.917L102.105 161.52L34.7438 200.848L30.2289 203.463V89.1592L57.3504 104.987L124.418 144.146L124.941 144.456L128.016 146.255L128.114 146.311Z" fill="#F0BA7D"/>
<path d="M225.325 87.0419C225.696 86.8248 226 86.9994 226 87.4296V200.197C226 200.627 225.993 200.973 225.984 200.965C225.974 200.957 225.93 200.926 225.885 200.895C225.84 200.864 225.774 200.819 225.738 200.796C225.702 200.773 225.665 200.754 225.656 200.754C225.647 200.754 225.335 200.576 224.964 200.36L131.636 145.88C131.265 145.663 130.657 145.307 130.287 145.088L129.966 144.899C129.595 144.68 129.027 144.344 128.703 144.15C128.379 143.957 128.419 143.622 128.791 143.406L131.168 142.026C131.54 141.81 131.866 141.621 131.893 141.606C131.92 141.59 131.964 141.565 131.992 141.549C132.019 141.534 132.345 141.345 132.717 141.128L134.799 139.918C135.172 139.702 135.779 139.348 136.151 139.131L225.325 87.0419Z" fill="#E5A864"/>
<path opacity="0.68" d="M174.375 66.3677C182.448 66.3677 188.993 59.823 188.993 51.7496C188.993 43.6763 182.448 37.1315 174.375 37.1315C166.301 37.1315 159.757 43.6763 159.757 51.7496C159.757 59.823 166.301 66.3677 174.375 66.3677Z" fill="#0AFF05"/>
<path d="M226 185.791V203.327H225.804L222.99 203.458H40.5997L40.4691 200.743C43.7736 198.485 48.1568 195.442 51.0034 193.512L51.3957 193.251L60.9492 186.675L75.8674 176.369L80.1855 173.392L125.497 142.149L128.539 140.022C129.259 139.564 130.077 139.171 130.96 138.91C132.007 138.55 133.152 138.321 134.297 138.223C134.69 138.19 135.049 138.158 135.442 138.19C135.835 138.125 136.228 138.125 136.62 138.125C137.667 138.092 138.682 138.19 139.663 138.386C140.709 138.583 141.658 138.91 142.509 139.368L176.861 158.474L193.84 167.928L198.257 170.382L214.255 179.281L224.789 185.137C225.083 185.301 225.41 185.464 225.738 185.66C225.804 185.693 225.902 185.759 226 185.791Z" fill="#C0874A"/>
<path d="M226 191.975V203.458H30.2289V191.975C33.6642 189.881 38.1791 187.035 41.1233 185.268L41.5157 185.006L51.3632 178.889L66.7722 169.336L71.2216 166.555L117.973 137.536L121.113 135.573C122.749 134.592 124.875 134.101 126.969 134.068C127.362 134.035 127.722 134.035 128.114 134.068C128.507 134.035 128.9 134.035 129.292 134.068C130.208 134.068 131.092 134.166 131.943 134.362C133.12 134.592 134.2 135.017 135.116 135.573L139.663 138.387L168.519 156.315L185.008 166.555L189.294 169.238L204.866 178.889L215.106 185.269C215.401 185.433 215.695 185.596 216.022 185.792C218.116 187.134 220.798 188.803 223.318 190.34C224.233 190.928 225.149 191.484 226 191.975Z" fill="#ECB168"/>
<path opacity="0.2" d="M209.086 29.1503V30.786C209.086 27.384 206.076 24.6358 202.346 24.6358H53.8496C50.1532 24.6358 47.1106 27.3836 47.1106 30.786V29.1503C47.1102 25.7478 50.1532 23 53.8496 23H202.347C206.076 23 209.086 25.7478 209.086 29.1503Z" fill="#0088F0"/>
<g clip-path="url(#clip0_187_77)">
<mask id="mask0_187_77" style="mask-type:luminance" maskUnits="userSpaceOnUse" x="166" y="44" width="16" height="16">
<path d="M182 44H166V60H182V44Z" fill="white"/>
</mask>
<g mask="url(#mask0_187_77)">
<path d="M172 54.7801L169.22 52.0001L168.273 52.9401L172 56.6667L180 48.6667L179.06 47.7267L172 54.7801Z" fill="#E6E6E6"/>
</g>
</g>
</g>
<defs>
<filter id="filter0_d_187_77" x="0" y="0" width="256" height="256" filterUnits="userSpaceOnUse" color-interpolation-filters="sRGB">
<feFlood flood-opacity="0" result="BackgroundImageFix"/>
<feColorMatrix in="SourceAlpha" type="matrix" values="0 0 0 0 0 0 0 0 0 0 0 0 0 0 0 0 0 0 127 0" result="hardAlpha"/>
<feOffset dy="7"/>
<feGaussianBlur stdDeviation="15"/>
<feColorMatrix type="matrix" values="0 0 0 0 0 0 0 0 0 0 0 0 0 0 0 0 0 0 0.35 0"/>
<feBlend mode="normal" in2="BackgroundImageFix" result="effect1_dropShadow_187_77"/>
<feBlend mode="normal" in="SourceGraphic" in2="effect1_dropShadow_187_77" result="shape"/>
</filter>
<clipPath id="clip0_187_77">
<rect width="16" height="16" fill="white" transform="translate(166 44)"/>
</clipPath>
</defs>
</svg>
