<svg width="100" height="100" viewBox="0 0 100 100" fill="none" xmlns="http://www.w3.org/2000/svg">
<path d="M99.883 33.9185L98.1471 35.0135L89.5008 40.4426L52.4621 63.6861L51.9947 63.9945L51.8943 64.0562L50.0084 65.2437L49.9416 65.2748L48.3893 64.3031L48.1053 64.118L13.0193 42.093L10.6326 40.5969L0.116797 33.9955L0 33.9185L10.6326 27.24L48.7398 3.31796H51.1434L89.5008 27.3941L90.7695 28.1963L99.883 33.9185Z" fill="#C0874A"/>
<path d="M91.3787 3.1377V78.1107C91.3787 79.8309 89.8396 81.2328 87.9332 81.2328H12.166C10.2771 81.2328 8.73804 79.8309 8.73804 78.1107V3.1377C8.73804 1.40156 10.2771 0 12.166 0H87.9332C89.8394 0 91.3787 1.40156 91.3787 3.1377Z" fill="#003975"/>
<path d="M58.8467 14.6682H21.6381V19.6248H58.8467V14.6682Z" fill="#A2CC86"/>
<path d="M58.8467 13.8854H21.6381V18.842H58.8467V13.8854Z" fill="#D1AE00"/>
<path d="M78.1812 41.9301H21.6381V46.8867H78.1812V41.9301Z" fill="#A2CC86"/>
<path d="M78.1812 41.1475H21.6381V46.1041H78.1812V41.1475Z" fill="#D1AE00"/>
<path d="M78.1812 55.5611H21.6381V60.5178H78.1812V55.5611Z" fill="#A2CC86"/>
<path d="M78.1812 54.7785H21.6381V59.7352H78.1812V54.7785Z" fill="#D1AE00"/>
<path d="M78.1812 28.299H21.6381V33.2557H78.1812V28.299Z" fill="#A2CC86"/>
<path d="M78.1812 27.5164H21.6381V32.473H78.1812V27.5164Z" fill="#D1AE00"/>
<path d="M50.0584 62.9137L49.4742 63.258L38.1739 69.8559L36.7883 70.6732L2.42034 90.7389L0.116821 92.0728V33.7547L13.9543 41.8299L48.1723 61.8094L48.4393 61.9672L50.0084 62.885L50.0584 62.9137Z" fill="#F0BA7D"/>
<path d="M99.6554 32.6744C99.8449 32.5637 99.9999 32.6527 99.9999 32.8723V90.4066C99.9999 90.6262 99.9962 90.8025 99.9915 90.7984C99.9869 90.7943 99.9644 90.7783 99.9413 90.7625C99.9183 90.7467 99.8845 90.724 99.8661 90.7123C99.8478 90.7004 99.829 90.6908 99.8244 90.6908C99.8197 90.6908 99.6609 90.6002 99.4714 90.4897L51.855 62.6939C51.6656 62.5834 51.3558 62.4016 51.1667 62.29L51.0029 62.1934C50.8138 62.0818 50.524 61.91 50.3587 61.8113C50.1935 61.7127 50.2136 61.542 50.4035 61.4316L51.6161 60.7277C51.806 60.6176 51.9726 60.5209 51.9863 60.5131C52.0001 60.5053 52.0226 60.4922 52.0365 60.4844C52.0503 60.4766 52.2167 60.3799 52.4066 60.2695L53.4691 59.6521C53.6589 59.542 53.9691 59.3611 54.1587 59.2504L99.6554 32.6744Z" fill="#E5A864"/>
<path opacity="0.68" d="M73.6606 22.1264C77.7796 22.1264 81.1188 18.7872 81.1188 14.6682C81.1188 10.5491 77.7796 7.20996 73.6606 7.20996C69.5415 7.20996 66.2024 10.5491 66.2024 14.6682C66.2024 18.7872 69.5415 22.1264 73.6606 22.1264Z" fill="#EEF3CA"/>
<path d="M100 83.0568V92.0037H99.8998L98.4643 92.0705H5.40803L5.34143 90.685C7.02737 89.5334 9.2637 87.9809 10.716 86.9961L10.9162 86.8625L15.7905 83.5074L23.4018 78.2496L25.6049 76.7307L48.7231 60.7902L50.2752 59.7051C50.6424 59.4717 51.0598 59.2711 51.5104 59.1379C52.0446 58.9541 52.6287 58.8373 53.2129 58.7873C53.4131 58.7705 53.5967 58.7539 53.7971 58.7705C53.9973 58.7371 54.1979 58.7371 54.3981 58.7371C54.9323 58.7205 55.4498 58.7705 55.9504 58.8705C56.4844 58.9707 56.9686 59.1379 57.4026 59.3713L74.9289 69.1193L83.5918 73.943L85.8453 75.1949L94.0074 79.735L99.3821 82.7229C99.5324 82.8064 99.6992 82.8898 99.8662 82.99C99.8998 83.0068 99.9498 83.0402 100 83.0568Z" fill="#C0874A"/>
<path d="M100 86.2117V92.0705H0.116821V86.2117C1.86956 85.1432 4.17307 83.6912 5.67522 82.7898L5.87542 82.6563L10.8996 79.5352L18.7614 74.6611L21.0315 73.2424L44.884 58.4367L46.4864 57.4354C47.3209 56.9346 48.4059 56.6842 49.4742 56.6674C49.6744 56.6506 49.858 56.6506 50.0584 56.6674C50.2588 56.6506 50.459 56.6506 50.6594 56.6674C51.1268 56.6674 51.5776 56.7176 52.0116 56.8176C52.6125 56.9346 53.1631 57.1516 53.6307 57.4354L55.9508 58.8707L70.6729 68.018L79.0856 73.2426L81.2723 74.6111L89.2176 79.5354L94.4418 82.7902C94.5922 82.8738 94.7424 82.957 94.9092 83.0572C95.9776 83.7418 97.3461 84.5932 98.6315 85.3775C99.0987 85.6775 99.566 85.9613 100 86.2117Z" fill="#ECB168"/>
<path opacity="0.2" d="M91.3703 3.13789V3.97246C91.3703 2.23672 89.8345 0.83457 87.9318 0.83457H12.1681C10.2822 0.83457 8.72986 2.23652 8.72986 3.97246V3.13789C8.72966 1.40195 10.2822 0 12.1681 0H87.932C89.8345 0 91.3703 1.40195 91.3703 3.13789Z" fill="#0088F0"/>
</svg>
