<svg width="24" height="24" viewBox="0 0 24 24" fill="none" xmlns="http://www.w3.org/2000/svg">
<g clip-path="url(#clip0_61_102)">
<path fill-rule="evenodd" clip-rule="evenodd" d="M23.6238 9.72151C23.9986 9.95569 24.1125 10.4492 23.8782 10.8239C23.1758 11.9479 22.3411 12.9703 21.3923 13.8609L23.3139 15.7825C23.6262 16.0949 23.6262 16.6014 23.3139 16.9139C23.0014 17.2262 22.4949 17.2262 22.1826 16.9139L20.1618 14.893C18.8878 15.8445 17.4542 16.5794 15.894 17.0416L16.6128 19.7242C16.727 20.151 16.4738 20.5896 16.047 20.704C15.6203 20.8184 15.1816 20.5651 15.0672 20.1382L14.3347 17.404C13.5799 17.5328 12.8006 17.5998 12 17.5998C11.1994 17.5998 10.4201 17.5328 9.66531 17.404L8.93279 20.1382C8.81845 20.5651 8.37979 20.8184 7.95301 20.704C7.52624 20.5896 7.27296 20.151 7.3873 19.7243L8.10598 17.0416C6.54578 16.5794 5.11205 15.8445 3.83824 14.893L1.81744 16.9138C1.50502 17.2262 0.998493 17.2262 0.686075 16.9138C0.373659 16.6014 0.373659 16.0949 0.686075 15.7825L2.60771 13.8608C1.65891 12.9703 0.824181 11.9479 0.121708 10.8239C-0.112459 10.4492 0.00143771 9.95569 0.376102 9.72151C0.750768 9.48735 1.24432 9.60124 1.47849 9.97591C2.24566 11.2034 3.1824 12.2889 4.25973 13.1883C4.27704 13.2015 4.29392 13.2155 4.31035 13.2303C6.41435 14.9684 9.04858 15.9998 12 15.9998C16.4925 15.9998 20.2501 13.6101 22.5214 9.97591C22.7557 9.60124 23.2493 9.48735 23.6238 9.72151Z" fill="#383737"/>
</g>
<defs>
<clipPath id="clip0_61_102">
<rect width="24" height="24" fill="white"/>
</clipPath>
</defs>
</svg>
