<svg width="464" height="197" viewBox="0 0 464 197" fill="none" xmlns="http://www.w3.org/2000/svg">
<g filter="url(#filter0_d_520_884)">
<g clip-path="url(#clip0_520_884)">
<rect x="30" y="23" width="404" height="137" rx="15" fill="url(#paint0_linear_520_884)" shape-rendering="crispEdges"/>
<path d="M403.057 37.008C403.057 37.2073 402.996 37.4022 402.883 37.5679C402.77 37.7337 402.61 37.8629 402.422 37.9392C402.234 38.0155 402.027 38.0354 401.828 37.9965C401.628 37.9576 401.445 37.8616 401.301 37.7207C401.157 37.5797 401.059 37.4001 401.02 37.2046C400.98 37.0091 401 36.8064 401.078 36.6222C401.156 36.438 401.288 36.2806 401.457 36.1699C401.626 36.0591 401.825 36 402.028 36C402.301 36 402.563 36.1062 402.755 36.2952C402.948 36.4843 403.057 36.7406 403.057 37.008Z" fill="#E6E6E6"/>
<path d="M407.586 37.008C407.587 37.2082 407.527 37.4041 407.414 37.5709C407.301 37.7378 407.14 37.868 406.952 37.9451C406.763 38.0222 406.556 38.0428 406.355 38.0041C406.155 37.9655 405.971 37.8695 405.826 37.7281C405.681 37.5868 405.583 37.4066 405.543 37.2103C405.502 37.0139 405.523 36.8104 405.601 36.6253C405.679 36.4403 405.811 36.2821 405.981 36.1707C406.151 36.0594 406.35 36 406.554 36C406.69 35.9995 406.824 36.0253 406.949 36.0757C407.074 36.1261 407.188 36.2003 407.284 36.2939C407.38 36.3876 407.456 36.4989 407.508 36.6214C407.56 36.7439 407.586 36.8753 407.586 37.008Z" fill="#E6E6E6"/>
<path d="M412.112 37.008C412.112 37.2073 412.052 37.4022 411.939 37.5679C411.826 37.7337 411.665 37.8629 411.477 37.9392C411.29 38.0155 411.083 38.0354 410.883 37.9965C410.684 37.9576 410.501 37.8616 410.357 37.7207C410.213 37.5797 410.115 37.4001 410.075 37.2046C410.036 37.0091 410.056 36.8064 410.134 36.6222C410.212 36.438 410.344 36.2806 410.513 36.1699C410.682 36.0591 410.881 36 411.084 36C411.357 36 411.618 36.1062 411.811 36.2952C412.004 36.4843 412.112 36.7406 412.112 37.008Z" fill="#E6E6E6"/>
<path d="M416.639 37.008C416.639 37.2073 416.578 37.4022 416.465 37.5679C416.352 37.7337 416.192 37.8629 416.004 37.9392C415.816 38.0155 415.609 38.0354 415.41 37.9965C415.21 37.9576 415.027 37.8616 414.883 37.7207C414.739 37.5797 414.641 37.4001 414.602 37.2046C414.562 37.0091 414.582 36.8064 414.66 36.6222C414.738 36.438 414.87 36.2806 415.039 36.1699C415.208 36.0591 415.407 36 415.61 36C415.883 36 416.145 36.1062 416.337 36.2952C416.53 36.4843 416.639 36.7406 416.639 37.008Z" fill="#E6E6E6"/>
<path d="M421.168 37.008C421.169 37.2082 421.109 37.4041 420.996 37.5709C420.883 37.7378 420.722 37.868 420.534 37.9451C420.345 38.0222 420.138 38.0428 419.937 38.0041C419.737 37.9655 419.553 37.8695 419.408 37.7281C419.263 37.5868 419.165 37.4066 419.125 37.2103C419.084 37.0139 419.105 36.8104 419.183 36.6253C419.261 36.4403 419.393 36.2821 419.563 36.1707C419.733 36.0594 419.932 36 420.136 36C420.272 35.9995 420.406 36.0253 420.531 36.0757C420.656 36.1261 420.77 36.2003 420.866 36.2939C420.962 36.3876 421.038 36.4989 421.09 36.6214C421.142 36.7439 421.168 36.8753 421.168 37.008Z" fill="#E6E6E6"/>
<path d="M425.694 37.008C425.694 37.2073 425.634 37.4022 425.521 37.5679C425.408 37.7337 425.247 37.8629 425.06 37.9392C424.872 38.0155 424.665 38.0354 424.465 37.9965C424.266 37.9576 424.083 37.8616 423.939 37.7207C423.795 37.5797 423.697 37.4001 423.657 37.2046C423.618 37.0091 423.638 36.8064 423.716 36.6222C423.794 36.438 423.926 36.2806 424.095 36.1699C424.264 36.0591 424.463 36 424.666 36C424.939 36 425.2 36.1062 425.393 36.2952C425.586 36.4843 425.694 36.7406 425.694 37.008Z" fill="#E6E6E6"/>
<path d="M403.057 42.2536C403.057 42.4529 402.996 42.6478 402.883 42.8135C402.77 42.9793 402.61 43.1085 402.422 43.1848C402.234 43.2611 402.027 43.281 401.828 43.2421C401.628 43.2033 401.445 43.1073 401.301 42.9663C401.157 42.8253 401.059 42.6457 401.02 42.4502C400.98 42.2547 401 42.052 401.078 41.8678C401.156 41.6837 401.288 41.5262 401.457 41.4155C401.626 41.3047 401.825 41.2456 402.028 41.2456C402.301 41.2456 402.563 41.3518 402.755 41.5408C402.948 41.7299 403.057 41.9862 403.057 42.2536Z" fill="#E6E6E6"/>
<path d="M407.586 42.2536C407.587 42.4538 407.527 42.6497 407.414 42.8165C407.301 42.9834 407.14 43.1136 406.952 43.1907C406.763 43.2678 406.556 43.2884 406.355 43.2497C406.155 43.2111 405.971 43.1151 405.826 42.9737C405.681 42.8324 405.583 42.6522 405.543 42.4559C405.502 42.2595 405.523 42.056 405.601 41.8709C405.679 41.6859 405.811 41.5277 405.981 41.4163C406.151 41.305 406.35 41.2456 406.554 41.2456C406.69 41.2451 406.824 41.2709 406.949 41.3213C407.074 41.3717 407.188 41.4459 407.284 41.5396C407.38 41.6332 407.456 41.7445 407.508 41.867C407.56 41.9895 407.586 42.1209 407.586 42.2536Z" fill="#E6E6E6"/>
<path d="M412.112 42.2536C412.112 42.4529 412.052 42.6478 411.939 42.8135C411.826 42.9793 411.665 43.1085 411.477 43.1848C411.29 43.2611 411.083 43.281 410.883 43.2421C410.684 43.2033 410.501 43.1073 410.357 42.9663C410.213 42.8253 410.115 42.6457 410.075 42.4502C410.036 42.2547 410.056 42.052 410.134 41.8678C410.212 41.6837 410.344 41.5262 410.513 41.4155C410.682 41.3047 410.881 41.2456 411.084 41.2456C411.357 41.2456 411.618 41.3518 411.811 41.5408C412.004 41.7299 412.112 41.9862 412.112 42.2536Z" fill="#E6E6E6"/>
<path d="M416.639 42.2536C416.639 42.4529 416.578 42.6478 416.465 42.8135C416.352 42.9793 416.192 43.1085 416.004 43.1848C415.816 43.2611 415.609 43.281 415.41 43.2421C415.21 43.2033 415.027 43.1073 414.883 42.9663C414.739 42.8253 414.641 42.6457 414.602 42.4502C414.562 42.2547 414.582 42.052 414.66 41.8678C414.738 41.6837 414.87 41.5262 415.039 41.4155C415.208 41.3047 415.407 41.2456 415.61 41.2456C415.883 41.2456 416.145 41.3518 416.337 41.5408C416.53 41.7299 416.639 41.9862 416.639 42.2536Z" fill="#E6E6E6"/>
<path d="M421.168 42.2536C421.169 42.4538 421.109 42.6497 420.996 42.8165C420.883 42.9834 420.722 43.1136 420.534 43.1907C420.345 43.2678 420.138 43.2884 419.937 43.2497C419.737 43.2111 419.553 43.1151 419.408 42.9737C419.263 42.8324 419.165 42.6522 419.125 42.4559C419.084 42.2595 419.105 42.056 419.183 41.8709C419.261 41.6859 419.393 41.5277 419.563 41.4163C419.733 41.305 419.932 41.2456 420.136 41.2456C420.272 41.2451 420.406 41.2709 420.531 41.3213C420.656 41.3717 420.77 41.4459 420.866 41.5396C420.962 41.6332 421.038 41.7445 421.09 41.867C421.142 41.9895 421.168 42.1209 421.168 42.2536Z" fill="#E6E6E6"/>
<path d="M425.694 42.2536C425.694 42.4529 425.634 42.6478 425.521 42.8135C425.408 42.9793 425.247 43.1085 425.06 43.1848C424.872 43.2611 424.665 43.281 424.465 43.2421C424.266 43.2033 424.083 43.1073 423.939 42.9663C423.795 42.8253 423.697 42.6457 423.657 42.4502C423.618 42.2547 423.638 42.052 423.716 41.8678C423.794 41.6837 423.926 41.5262 424.095 41.4155C424.264 41.3047 424.463 41.2456 424.666 41.2456C424.939 41.2456 425.2 41.3518 425.393 41.5408C425.586 41.7299 425.694 41.9862 425.694 42.2536Z" fill="#E6E6E6"/>
<path d="M403.057 47.4992C403.054 47.6979 402.991 47.8914 402.876 48.0552C402.761 48.2191 402.6 48.346 402.412 48.4201C402.223 48.4941 402.017 48.5121 401.819 48.4716C401.62 48.431 401.438 48.3339 401.296 48.1924C401.154 48.0509 401.057 47.8713 401.019 47.6761C400.98 47.481 401.001 47.2791 401.08 47.0958C401.158 46.9124 401.29 46.7559 401.458 46.6457C401.627 46.5356 401.825 46.4768 402.028 46.4768C402.164 46.4768 402.299 46.5033 402.425 46.5549C402.551 46.6064 402.665 46.682 402.761 46.7771C402.856 46.8723 402.932 46.9851 402.983 47.109C403.033 47.233 403.058 47.3656 403.057 47.4992Z" fill="#E6E6E6"/>
<path d="M407.586 47.4994C407.586 47.6994 407.526 47.895 407.413 48.0614C407.299 48.2277 407.138 48.3574 406.949 48.4339C406.761 48.5105 406.553 48.5305 406.353 48.4915C406.153 48.4525 405.969 48.3561 405.825 48.2146C405.68 48.0732 405.582 47.8929 405.542 47.6967C405.502 47.5005 405.523 47.2971 405.601 47.1123C405.679 46.9274 405.811 46.7694 405.981 46.6583C406.151 46.5471 406.35 46.4878 406.554 46.4878C406.69 46.4873 406.825 46.5132 406.95 46.5638C407.075 46.6145 407.189 46.689 407.285 46.783C407.381 46.877 407.457 46.9887 407.509 47.1117C407.561 47.2346 407.587 47.3664 407.586 47.4994Z" fill="#E6E6E6"/>
<path d="M412.112 47.4992C412.109 47.6979 412.047 47.8914 411.932 48.0552C411.817 48.2191 411.655 48.346 411.467 48.4201C411.279 48.4941 411.073 48.5121 410.874 48.4716C410.676 48.431 410.494 48.3339 410.352 48.1924C410.209 48.0509 410.113 47.8713 410.074 47.6761C410.036 47.481 410.057 47.2791 410.135 47.0958C410.214 46.9124 410.345 46.7559 410.514 46.6457C410.683 46.5356 410.881 46.4768 411.084 46.4768C411.22 46.4768 411.355 46.5033 411.481 46.5549C411.607 46.6064 411.721 46.682 411.816 46.7771C411.912 46.8723 411.987 46.9851 412.038 47.109C412.089 47.233 412.114 47.3656 412.112 47.4992Z" fill="#E6E6E6"/>
<path d="M416.639 47.4992C416.636 47.6979 416.573 47.8914 416.458 48.0552C416.343 48.2191 416.182 48.346 415.994 48.4201C415.806 48.4941 415.599 48.5121 415.401 48.4716C415.202 48.431 415.02 48.3339 414.878 48.1924C414.736 48.0509 414.639 47.8713 414.601 47.6761C414.562 47.481 414.583 47.2791 414.662 47.0958C414.74 46.9124 414.872 46.7559 415.041 46.6457C415.209 46.5356 415.407 46.4768 415.61 46.4768C415.747 46.4768 415.881 46.5033 416.007 46.5549C416.133 46.6064 416.247 46.682 416.343 46.7771C416.438 46.8723 416.514 46.9851 416.565 47.109C416.615 47.233 416.641 47.3656 416.639 47.4992Z" fill="#E6E6E6"/>
<path d="M421.168 47.4994C421.168 47.6994 421.108 47.895 420.995 48.0614C420.881 48.2277 420.72 48.3574 420.531 48.4339C420.343 48.5105 420.135 48.5305 419.935 48.4915C419.735 48.4525 419.551 48.3561 419.407 48.2146C419.262 48.0732 419.164 47.8929 419.124 47.6967C419.085 47.5005 419.105 47.2971 419.183 47.1123C419.261 46.9274 419.393 46.7694 419.563 46.6583C419.733 46.5471 419.932 46.4878 420.136 46.4878C420.272 46.4873 420.407 46.5132 420.532 46.5638C420.657 46.6145 420.771 46.689 420.867 46.783C420.963 46.877 421.039 46.9887 421.091 47.1117C421.143 47.2346 421.169 47.3664 421.168 47.4994Z" fill="#E6E6E6"/>
<path d="M425.694 47.4992C425.691 47.6979 425.629 47.8914 425.514 48.0552C425.399 48.2191 425.237 48.346 425.049 48.4201C424.861 48.4941 424.655 48.5121 424.456 48.4716C424.258 48.431 424.076 48.3339 423.934 48.1924C423.791 48.0509 423.695 47.8713 423.656 47.6761C423.618 47.481 423.639 47.2791 423.717 47.0958C423.796 46.9124 423.927 46.7559 424.096 46.6457C424.265 46.5356 424.463 46.4768 424.666 46.4768C424.802 46.4768 424.937 46.5033 425.063 46.5549C425.189 46.6064 425.303 46.682 425.398 46.7771C425.494 46.8723 425.569 46.9851 425.62 47.109C425.671 47.233 425.696 47.3656 425.694 47.4992Z" fill="#E6E6E6"/>
<path d="M403.057 52.7414C403.057 52.9407 402.996 53.1356 402.883 53.3013C402.77 53.4671 402.61 53.5963 402.422 53.6726C402.234 53.7489 402.027 53.7688 401.828 53.7299C401.628 53.691 401.445 53.595 401.301 53.4541C401.157 53.3131 401.059 53.1335 401.02 52.938C400.98 52.7425 401 52.5398 401.078 52.3556C401.156 52.1714 401.288 52.014 401.457 51.9033C401.626 51.7925 401.825 51.7334 402.028 51.7334C402.301 51.7334 402.563 51.8396 402.755 52.0286C402.948 52.2176 403.057 52.474 403.057 52.7414Z" fill="#E6E6E6"/>
<path d="M407.586 52.7414C407.587 52.9416 407.527 53.1375 407.414 53.3043C407.301 53.4712 407.14 53.6014 406.952 53.6785C406.763 53.7556 406.556 53.7762 406.355 53.7375C406.155 53.6989 405.971 53.6029 405.826 53.4615C405.681 53.3202 405.583 53.14 405.543 52.9436C405.502 52.7473 405.523 52.5437 405.601 52.3587C405.679 52.1736 405.811 52.0155 405.981 51.9041C406.151 51.7928 406.35 51.7334 406.554 51.7334C406.69 51.7329 406.824 51.7587 406.949 51.8091C407.074 51.8595 407.188 51.9337 407.284 52.0273C407.38 52.121 407.456 52.2323 407.508 52.3548C407.56 52.4773 407.586 52.6087 407.586 52.7414Z" fill="#E6E6E6"/>
<path d="M412.112 52.7414C412.112 52.9407 412.052 53.1356 411.939 53.3013C411.826 53.4671 411.665 53.5963 411.477 53.6726C411.29 53.7489 411.083 53.7688 410.883 53.7299C410.684 53.691 410.501 53.595 410.357 53.4541C410.213 53.3131 410.115 53.1335 410.075 52.938C410.036 52.7425 410.056 52.5398 410.134 52.3556C410.212 52.1714 410.344 52.014 410.513 51.9033C410.682 51.7925 410.881 51.7334 411.084 51.7334C411.357 51.7334 411.618 51.8396 411.811 52.0286C412.004 52.2176 412.112 52.474 412.112 52.7414Z" fill="#E6E6E6"/>
<path d="M416.639 52.7414C416.639 52.9407 416.578 53.1356 416.465 53.3013C416.352 53.4671 416.192 53.5963 416.004 53.6726C415.816 53.7489 415.609 53.7688 415.41 53.7299C415.21 53.691 415.027 53.595 414.883 53.4541C414.739 53.3131 414.641 53.1335 414.602 52.938C414.562 52.7425 414.582 52.5398 414.66 52.3556C414.738 52.1714 414.87 52.014 415.039 51.9033C415.208 51.7925 415.407 51.7334 415.61 51.7334C415.883 51.7334 416.145 51.8396 416.337 52.0286C416.53 52.2176 416.639 52.474 416.639 52.7414Z" fill="#E6E6E6"/>
<path d="M420.136 53.7493C420.704 53.7493 421.165 53.298 421.165 52.7414C421.165 52.1847 420.704 51.7334 420.136 51.7334C419.568 51.7334 419.108 52.1847 419.108 52.7414C419.108 53.298 419.568 53.7493 420.136 53.7493Z" fill="#E6E6E6"/>
<path d="M424.666 53.7493C425.234 53.7493 425.694 53.298 425.694 52.7414C425.694 52.1847 425.234 51.7334 424.666 51.7334C424.098 51.7334 423.638 52.1847 423.638 52.7414C423.638 53.298 424.098 53.7493 424.666 53.7493Z" fill="#E6E6E6"/>
<path d="M403.057 57.987C403.057 58.1863 402.996 58.3812 402.883 58.5469C402.77 58.7127 402.61 58.8419 402.422 58.9182C402.234 58.9945 402.027 59.0144 401.828 58.9755C401.628 58.9366 401.445 58.8407 401.301 58.6997C401.157 58.5587 401.059 58.3791 401.02 58.1836C400.98 57.9881 401 57.7854 401.078 57.6012C401.156 57.4171 401.288 57.2596 401.457 57.1489C401.626 57.0381 401.825 56.979 402.028 56.979C402.301 56.979 402.563 57.0852 402.755 57.2742C402.948 57.4633 403.057 57.7196 403.057 57.987Z" fill="#E6E6E6"/>
<path d="M407.586 57.987C407.587 58.1872 407.527 58.3831 407.414 58.5499C407.301 58.7168 407.14 58.847 406.952 58.9241C406.763 59.0012 406.556 59.0218 406.355 58.9831C406.155 58.9445 405.971 58.8485 405.826 58.7071C405.681 58.5658 405.583 58.3856 405.543 58.1893C405.502 57.9929 405.523 57.7894 405.601 57.6043C405.679 57.4193 405.811 57.2611 405.981 57.1497C406.151 57.0384 406.35 56.979 406.554 56.979C406.69 56.9785 406.824 57.0043 406.949 57.0547C407.074 57.1051 407.188 57.1793 407.284 57.273C407.38 57.3666 407.456 57.4779 407.508 57.6004C407.56 57.7229 407.586 57.8543 407.586 57.987Z" fill="#E6E6E6"/>
<path d="M412.112 57.987C412.112 58.1863 412.052 58.3812 411.939 58.5469C411.826 58.7127 411.665 58.8419 411.477 58.9182C411.29 58.9945 411.083 59.0144 410.883 58.9755C410.684 58.9366 410.501 58.8407 410.357 58.6997C410.213 58.5587 410.115 58.3791 410.075 58.1836C410.036 57.9881 410.056 57.7854 410.134 57.6012C410.212 57.4171 410.344 57.2596 410.513 57.1489C410.682 57.0381 410.881 56.979 411.084 56.979C411.357 56.979 411.618 57.0852 411.811 57.2742C412.004 57.4633 412.112 57.7196 412.112 57.987Z" fill="#E6E6E6"/>
<path d="M416.639 57.987C416.639 58.1863 416.578 58.3812 416.465 58.5469C416.352 58.7127 416.192 58.8419 416.004 58.9182C415.816 58.9945 415.609 59.0144 415.41 58.9755C415.21 58.9366 415.027 58.8407 414.883 58.6997C414.739 58.5587 414.641 58.3791 414.602 58.1836C414.562 57.9881 414.582 57.7854 414.66 57.6012C414.738 57.4171 414.87 57.2596 415.039 57.1489C415.208 57.0381 415.407 56.979 415.61 56.979C415.883 56.979 416.145 57.0852 416.337 57.2742C416.53 57.4633 416.639 57.7196 416.639 57.987Z" fill="#E6E6E6"/>
<path d="M420.136 58.9949C420.704 58.9949 421.165 58.5436 421.165 57.987C421.165 57.4303 420.704 56.979 420.136 56.979C419.568 56.979 419.108 57.4303 419.108 57.987C419.108 58.5436 419.568 58.9949 420.136 58.9949Z" fill="#E6E6E6"/>
<path d="M424.666 58.9949C425.234 58.9949 425.694 58.5436 425.694 57.987C425.694 57.4303 425.234 56.979 424.666 56.979C424.098 56.979 423.638 57.4303 423.638 57.987C423.638 58.5436 424.098 58.9949 424.666 58.9949Z" fill="#E6E6E6"/>
<path d="M412.901 49.8861C412.901 50.0614 412.954 50.2327 413.053 50.3784C413.153 50.5241 413.294 50.6377 413.459 50.7047C413.624 50.7718 413.806 50.7894 413.981 50.7552C414.157 50.721 414.318 50.6366 414.444 50.5127C414.571 50.3887 414.657 50.2309 414.692 50.059C414.726 49.8871 414.709 49.7089 414.64 49.547C414.572 49.3851 414.456 49.2467 414.307 49.1493C414.159 49.052 413.984 49 413.805 49C413.565 49 413.335 49.0934 413.166 49.2595C412.996 49.4257 412.901 49.6511 412.901 49.8861Z" fill="#0571B9"/>
<path d="M408.919 49.8861C408.918 50.0621 408.971 50.2344 409.07 50.381C409.17 50.5277 409.311 50.6422 409.477 50.7099C409.642 50.7777 409.825 50.7958 410.001 50.7619C410.177 50.7279 410.339 50.6435 410.467 50.5192C410.594 50.395 410.68 50.2365 410.716 50.0639C410.751 49.8914 410.733 49.7124 410.665 49.5497C410.596 49.387 410.48 49.248 410.331 49.1501C410.181 49.0522 410.006 49 409.826 49C409.707 48.9996 409.589 49.0222 409.479 49.0665C409.369 49.1109 409.269 49.1761 409.185 49.2584C409.101 49.3407 409.034 49.4386 408.988 49.5463C408.942 49.654 408.919 49.7695 408.919 49.8861Z" fill="#0571B9"/>
<path d="M404.94 49.8861C404.94 50.0614 404.993 50.2327 405.092 50.3784C405.192 50.5241 405.333 50.6377 405.498 50.7047C405.663 50.7718 405.845 50.7894 406.02 50.7552C406.196 50.721 406.357 50.6366 406.483 50.5127C406.61 50.3887 406.696 50.2309 406.731 50.059C406.766 49.8871 406.748 49.7089 406.679 49.547C406.611 49.3851 406.495 49.2467 406.346 49.1493C406.198 49.052 406.023 49 405.844 49C405.604 49 405.374 49.0934 405.205 49.2595C405.035 49.4257 404.94 49.6511 404.94 49.8861Z" fill="#0571B9"/>
<path d="M400.961 49.8861C400.961 50.0614 401.014 50.2327 401.113 50.3784C401.213 50.5241 401.354 50.6377 401.519 50.7047C401.684 50.7718 401.866 50.7894 402.041 50.7552C402.217 50.721 402.378 50.6366 402.504 50.5127C402.631 50.3887 402.717 50.2309 402.752 50.059C402.787 49.8871 402.769 49.7089 402.7 49.547C402.632 49.3851 402.516 49.2467 402.367 49.1493C402.219 49.052 402.044 49 401.865 49C401.625 49 401.395 49.0934 401.226 49.2595C401.056 49.4257 400.961 49.6511 400.961 49.8861Z" fill="#0571B9"/>
<path d="M396.979 49.8861C396.978 50.0621 397.031 50.2344 397.13 50.381C397.23 50.5277 397.371 50.6422 397.537 50.7099C397.703 50.7777 397.885 50.7958 398.061 50.7619C398.237 50.7279 398.399 50.6435 398.527 50.5192C398.654 50.395 398.741 50.2365 398.776 50.0639C398.811 49.8914 398.793 49.7124 398.725 49.5497C398.656 49.387 398.54 49.248 398.391 49.1501C398.241 49.0522 398.066 49 397.886 49C397.767 48.9996 397.649 49.0222 397.539 49.0665C397.429 49.1109 397.329 49.1761 397.245 49.2584C397.161 49.3407 397.094 49.4386 397.048 49.5463C397.002 49.654 396.979 49.7695 396.979 49.8861Z" fill="#0571B9"/>
<path d="M393 49.8861C393 50.0614 393.053 50.2327 393.152 50.3784C393.252 50.5241 393.393 50.6377 393.558 50.7047C393.723 50.7718 393.905 50.7894 394.08 50.7552C394.256 50.721 394.417 50.6366 394.543 50.5127C394.67 50.3887 394.756 50.2309 394.791 50.059C394.826 49.8871 394.808 49.7089 394.739 49.547C394.671 49.3851 394.555 49.2467 394.406 49.1493C394.258 49.052 394.083 49 393.904 49C393.664 49 393.434 49.0934 393.265 49.2595C393.095 49.4257 393 49.6511 393 49.8861Z" fill="#0571B9"/>
<path d="M412.901 54.4977C412.901 54.6729 412.954 54.8442 413.053 54.99C413.153 55.1357 413.294 55.2493 413.459 55.3163C413.624 55.3834 413.806 55.4009 413.981 55.3667C414.157 55.3326 414.318 55.2482 414.444 55.1242C414.571 55.0003 414.657 54.8424 414.692 54.6705C414.726 54.4987 414.709 54.3205 414.64 54.1586C414.572 53.9967 414.456 53.8583 414.307 53.7609C414.159 53.6635 413.984 53.6116 413.805 53.6116C413.565 53.6116 413.335 53.7049 413.166 53.8711C412.996 54.0373 412.901 54.2627 412.901 54.4977Z" fill="#0571B9"/>
<path d="M408.919 54.4977C408.918 54.6737 408.971 54.8459 409.07 54.9926C409.17 55.1393 409.311 55.2537 409.477 55.3215C409.642 55.3893 409.825 55.4074 410.001 55.3734C410.177 55.3395 410.339 55.255 410.467 55.1308C410.594 55.0065 410.68 54.8481 410.716 54.6755C410.751 54.5029 410.733 54.324 410.665 54.1613C410.596 53.9986 410.48 53.8595 410.331 53.7617C410.181 53.6638 410.006 53.6116 409.826 53.6116C409.707 53.6112 409.589 53.6338 409.479 53.6781C409.369 53.7225 409.269 53.7877 409.185 53.87C409.101 53.9523 409.034 54.0501 408.988 54.1578C408.942 54.2656 408.919 54.381 408.919 54.4977Z" fill="#0571B9"/>
<path d="M404.94 54.4977C404.94 54.6729 404.993 54.8442 405.092 54.99C405.192 55.1357 405.333 55.2493 405.498 55.3163C405.663 55.3834 405.845 55.4009 406.02 55.3667C406.196 55.3326 406.357 55.2482 406.483 55.1242C406.61 55.0003 406.696 54.8424 406.731 54.6705C406.766 54.4987 406.748 54.3205 406.679 54.1586C406.611 53.9967 406.495 53.8583 406.346 53.7609C406.198 53.6635 406.023 53.6116 405.844 53.6116C405.604 53.6116 405.374 53.7049 405.205 53.8711C405.035 54.0373 404.94 54.2627 404.94 54.4977Z" fill="#0571B9"/>
<path d="M400.961 54.4977C400.961 54.6729 401.014 54.8442 401.113 54.99C401.213 55.1357 401.354 55.2493 401.519 55.3163C401.684 55.3834 401.866 55.4009 402.041 55.3667C402.217 55.3326 402.378 55.2482 402.504 55.1242C402.631 55.0003 402.717 54.8424 402.752 54.6705C402.787 54.4987 402.769 54.3205 402.7 54.1586C402.632 53.9967 402.516 53.8583 402.367 53.7609C402.219 53.6635 402.044 53.6116 401.865 53.6116C401.625 53.6116 401.395 53.7049 401.226 53.8711C401.056 54.0373 400.961 54.2627 400.961 54.4977Z" fill="#0571B9"/>
<path d="M396.979 54.4977C396.978 54.6737 397.031 54.8459 397.13 54.9926C397.23 55.1393 397.371 55.2537 397.537 55.3215C397.703 55.3893 397.885 55.4074 398.061 55.3734C398.237 55.3395 398.399 55.255 398.527 55.1308C398.654 55.0065 398.741 54.8481 398.776 54.6755C398.811 54.5029 398.793 54.324 398.725 54.1613C398.656 53.9986 398.54 53.8595 398.391 53.7617C398.241 53.6638 398.066 53.6116 397.886 53.6116C397.767 53.6112 397.649 53.6338 397.539 53.6781C397.429 53.7225 397.329 53.7877 397.245 53.87C397.161 53.9523 397.094 54.0501 397.048 54.1578C397.002 54.2656 396.979 54.381 396.979 54.4977Z" fill="#0571B9"/>
<path d="M393 54.4977C393 54.6729 393.053 54.8442 393.152 54.99C393.252 55.1357 393.393 55.2493 393.558 55.3163C393.723 55.3834 393.905 55.4009 394.08 55.3667C394.256 55.3326 394.417 55.2482 394.543 55.1242C394.67 55.0003 394.756 54.8424 394.791 54.6705C394.826 54.4987 394.808 54.3205 394.739 54.1586C394.671 53.9967 394.555 53.8583 394.406 53.7609C394.258 53.6635 394.083 53.6116 393.904 53.6116C393.664 53.6116 393.434 53.7049 393.265 53.8711C393.095 54.0373 393 54.2627 393 54.4977Z" fill="#0571B9"/>
<path d="M412.901 59.1093C412.904 59.2839 412.959 59.454 413.06 59.598C413.161 59.7421 413.303 59.8537 413.468 59.9188C413.633 59.9839 413.815 59.9997 413.989 59.964C414.164 59.9284 414.324 59.8431 414.449 59.7186C414.574 59.5942 414.659 59.4363 414.693 59.2648C414.726 59.0933 414.708 58.9158 414.639 58.7546C414.57 58.5934 414.454 58.4558 414.306 58.3589C414.158 58.2621 413.983 58.2105 413.805 58.2104C413.685 58.2104 413.567 58.2338 413.456 58.2791C413.346 58.3244 413.245 58.3908 413.161 58.4745C413.077 58.5581 413.011 58.6573 412.966 58.7663C412.921 58.8752 412.899 58.9918 412.901 59.1093Z" fill="#0571B9"/>
<path d="M408.919 59.1093C408.919 59.2851 408.972 59.4571 409.072 59.6033C409.172 59.7495 409.313 59.8635 409.479 59.9308C409.645 59.9981 409.827 60.0158 410.003 59.9814C410.179 59.9471 410.341 59.8624 410.468 59.7381C410.595 59.6137 410.681 59.4552 410.716 59.2827C410.751 59.1102 410.733 58.9314 410.664 58.7689C410.596 58.6064 410.479 58.4676 410.33 58.3698C410.181 58.2721 410.006 58.22 409.826 58.22C409.707 58.2196 409.589 58.2423 409.478 58.2868C409.368 58.3314 409.268 58.3968 409.184 58.4795C409.099 58.5622 409.033 58.6604 408.987 58.7684C408.942 58.8765 408.918 58.9924 408.919 59.1093Z" fill="#0571B9"/>
<path d="M404.94 59.1093C404.943 59.2839 404.998 59.454 405.099 59.598C405.2 59.7421 405.342 59.8537 405.507 59.9188C405.672 59.9839 405.854 59.9997 406.028 59.964C406.203 59.9284 406.363 59.8431 406.488 59.7186C406.613 59.5942 406.698 59.4363 406.732 59.2648C406.765 59.0933 406.747 58.9158 406.678 58.7546C406.609 58.5934 406.493 58.4558 406.345 58.3589C406.197 58.2621 406.022 58.2105 405.844 58.2104C405.724 58.2104 405.606 58.2338 405.495 58.2791C405.385 58.3244 405.284 58.3908 405.2 58.4745C405.116 58.5581 405.05 58.6573 405.005 58.7663C404.961 58.8752 404.938 58.9918 404.94 59.1093Z" fill="#0571B9"/>
<path d="M400.961 59.1093C400.964 59.2839 401.019 59.454 401.12 59.598C401.221 59.7421 401.363 59.8537 401.528 59.9188C401.693 59.9839 401.875 59.9997 402.049 59.964C402.224 59.9284 402.384 59.8431 402.509 59.7186C402.634 59.5942 402.719 59.4363 402.753 59.2648C402.786 59.0933 402.768 58.9158 402.699 58.7546C402.63 58.5934 402.514 58.4558 402.366 58.3589C402.218 58.2621 402.043 58.2105 401.865 58.2104C401.745 58.2104 401.627 58.2338 401.516 58.2791C401.406 58.3244 401.305 58.3908 401.221 58.4745C401.137 58.5581 401.071 58.6573 401.026 58.7663C400.982 58.8752 400.959 58.9918 400.961 59.1093Z" fill="#0571B9"/>
<path d="M396.979 59.1093C396.979 59.2851 397.032 59.4571 397.132 59.6033C397.232 59.7495 397.373 59.8635 397.539 59.9308C397.705 59.9981 397.887 60.0158 398.063 59.9814C398.239 59.9471 398.401 59.8624 398.528 59.7381C398.655 59.6137 398.741 59.4552 398.776 59.2827C398.811 59.1102 398.793 58.9314 398.724 58.7689C398.656 58.6064 398.539 58.4676 398.39 58.3698C398.241 58.2721 398.066 58.22 397.886 58.22C397.767 58.2196 397.649 58.2423 397.539 58.2868C397.428 58.3314 397.328 58.3968 397.244 58.4795C397.159 58.5622 397.093 58.6604 397.047 58.7684C397.002 58.8765 396.979 58.9924 396.979 59.1093Z" fill="#0571B9"/>
<path d="M393 59.1093C393.003 59.2839 393.058 59.454 393.159 59.598C393.26 59.7421 393.402 59.8537 393.567 59.9188C393.733 59.9839 393.914 59.9997 394.088 59.964C394.263 59.9284 394.423 59.8431 394.548 59.7186C394.673 59.5942 394.758 59.4363 394.792 59.2648C394.826 59.0933 394.807 58.9158 394.738 58.7546C394.669 58.5934 394.553 58.4558 394.405 58.3589C394.257 58.2621 394.082 58.2105 393.904 58.2104C393.784 58.2104 393.666 58.2338 393.555 58.2791C393.445 58.3244 393.344 58.3908 393.26 58.4745C393.176 58.5581 393.11 58.6573 393.065 58.7663C393.021 58.8752 392.998 58.9918 393 59.1093Z" fill="#0571B9"/>
<path d="M412.901 63.7174C412.901 63.8927 412.954 64.064 413.053 64.2097C413.153 64.3554 413.294 64.469 413.459 64.536C413.624 64.6031 413.806 64.6207 413.981 64.5865C414.157 64.5523 414.318 64.4679 414.444 64.344C414.571 64.22 414.657 64.0622 414.692 63.8903C414.726 63.7184 414.709 63.5402 414.64 63.3783C414.572 63.2164 414.456 63.078 414.307 62.9806C414.159 62.8833 413.984 62.8313 413.805 62.8313C413.565 62.8313 413.335 62.9247 413.166 63.0908C412.996 63.257 412.901 63.4824 412.901 63.7174Z" fill="#0571B9"/>
<path d="M408.919 63.7174C408.918 63.8934 408.971 64.0657 409.07 64.2123C409.17 64.359 409.311 64.4735 409.477 64.5412C409.642 64.609 409.825 64.6271 410.001 64.5932C410.177 64.5592 410.339 64.4748 410.467 64.3505C410.594 64.2263 410.68 64.0678 410.716 63.8952C410.751 63.7227 410.733 63.5437 410.665 63.381C410.596 63.2183 410.48 63.0793 410.331 62.9814C410.181 62.8835 410.006 62.8313 409.826 62.8313C409.707 62.8309 409.589 62.8535 409.479 62.8978C409.369 62.9422 409.269 63.0074 409.185 63.0897C409.101 63.172 409.034 63.2699 408.988 63.3776C408.942 63.4853 408.919 63.6008 408.919 63.7174Z" fill="#0571B9"/>
<path d="M404.94 63.7174C404.94 63.8927 404.993 64.064 405.092 64.2097C405.192 64.3554 405.333 64.469 405.498 64.536C405.663 64.6031 405.845 64.6207 406.02 64.5865C406.196 64.5523 406.357 64.4679 406.483 64.344C406.61 64.22 406.696 64.0622 406.731 63.8903C406.766 63.7184 406.748 63.5402 406.679 63.3783C406.611 63.2164 406.495 63.078 406.346 62.9806C406.198 62.8833 406.023 62.8313 405.844 62.8313C405.604 62.8313 405.374 62.9247 405.205 63.0908C405.035 63.257 404.94 63.4824 404.94 63.7174Z" fill="#0571B9"/>
<path d="M400.961 63.7174C400.961 63.8927 401.014 64.064 401.113 64.2097C401.213 64.3554 401.354 64.469 401.519 64.536C401.684 64.6031 401.866 64.6207 402.041 64.5865C402.217 64.5523 402.378 64.4679 402.504 64.344C402.631 64.22 402.717 64.0622 402.752 63.8903C402.787 63.7184 402.769 63.5402 402.7 63.3783C402.632 63.2164 402.516 63.078 402.367 62.9806C402.219 62.8833 402.044 62.8313 401.865 62.8313C401.625 62.8313 401.395 62.9247 401.226 63.0908C401.056 63.257 400.961 63.4824 400.961 63.7174Z" fill="#0571B9"/>
<path d="M397.886 64.6035C397.387 64.6035 396.982 64.2068 396.982 63.7174C396.982 63.228 397.387 62.8313 397.886 62.8313C398.385 62.8313 398.79 63.228 398.79 63.7174C398.79 64.2068 398.385 64.6035 397.886 64.6035Z" fill="#0571B9"/>
<path d="M393.904 64.6035C393.405 64.6035 393 64.2068 393 63.7174C393 63.228 393.405 62.8313 393.904 62.8313C394.403 62.8313 394.808 63.228 394.808 63.7174C394.808 64.2068 394.403 64.6035 393.904 64.6035Z" fill="#0571B9"/>
<path d="M412.901 68.329C412.901 68.5042 412.954 68.6755 413.053 68.8213C413.153 68.967 413.294 69.0806 413.459 69.1476C413.624 69.2147 413.806 69.2322 413.981 69.198C414.157 69.1639 414.318 69.0795 414.444 68.9555C414.571 68.8316 414.657 68.6737 414.692 68.5018C414.726 68.33 414.709 68.1518 414.64 67.9899C414.572 67.828 414.456 67.6896 414.307 67.5922C414.159 67.4948 413.984 67.4429 413.805 67.4429C413.565 67.4429 413.335 67.5362 413.166 67.7024C412.996 67.8686 412.901 68.094 412.901 68.329Z" fill="#0571B9"/>
<path d="M408.919 68.329C408.918 68.505 408.971 68.6772 409.07 68.8239C409.17 68.9706 409.311 69.085 409.477 69.1528C409.642 69.2206 409.825 69.2387 410.001 69.2047C410.177 69.1708 410.339 69.0863 410.467 68.9621C410.594 68.8378 410.68 68.6794 410.716 68.5068C410.751 68.3342 410.733 68.1553 410.665 67.9926C410.596 67.8299 410.48 67.6908 410.331 67.593C410.181 67.4951 410.006 67.4429 409.826 67.4429C409.707 67.4425 409.589 67.4651 409.479 67.5094C409.369 67.5538 409.269 67.619 409.185 67.7013C409.101 67.7836 409.034 67.8814 408.988 67.9891C408.942 68.0969 408.919 68.2123 408.919 68.329Z" fill="#0571B9"/>
<path d="M404.94 68.329C404.94 68.5042 404.993 68.6755 405.092 68.8213C405.192 68.967 405.333 69.0806 405.498 69.1476C405.663 69.2147 405.845 69.2322 406.02 69.198C406.196 69.1639 406.357 69.0795 406.483 68.9555C406.61 68.8316 406.696 68.6737 406.731 68.5018C406.766 68.33 406.748 68.1518 406.679 67.9899C406.611 67.828 406.495 67.6896 406.346 67.5922C406.198 67.4948 406.023 67.4429 405.844 67.4429C405.604 67.4429 405.374 67.5362 405.205 67.7024C405.035 67.8686 404.94 68.094 404.94 68.329Z" fill="#0571B9"/>
<path d="M400.961 68.329C400.961 68.5042 401.014 68.6755 401.113 68.8213C401.213 68.967 401.354 69.0806 401.519 69.1476C401.684 69.2147 401.866 69.2322 402.041 69.198C402.217 69.1639 402.378 69.0795 402.504 68.9555C402.631 68.8316 402.717 68.6737 402.752 68.5018C402.787 68.33 402.769 68.1518 402.7 67.9899C402.632 67.828 402.516 67.6896 402.367 67.5922C402.219 67.4948 402.044 67.4429 401.865 67.4429C401.625 67.4429 401.395 67.5362 401.226 67.7024C401.056 67.8686 400.961 68.094 400.961 68.329Z" fill="#0571B9"/>
<path d="M397.886 69.2151C397.387 69.2151 396.982 68.8183 396.982 68.329C396.982 67.8396 397.387 67.4429 397.886 67.4429C398.385 67.4429 398.79 67.8396 398.79 68.329C398.79 68.8183 398.385 69.2151 397.886 69.2151Z" fill="#0571B9"/>
<path d="M393.904 69.2151C393.405 69.2151 393 68.8183 393 68.329C393 67.8396 393.405 67.4429 393.904 67.4429C394.403 67.4429 394.808 67.8396 394.808 68.329C394.808 68.8183 394.403 69.2151 393.904 69.2151Z" fill="#0571B9"/>
<path d="M380.102 124.429C375.698 127.032 371.532 130.002 367.648 133.306H484.03C480.146 130.002 475.98 127.032 471.576 124.429H380.102Z" fill="#E5CF00" fill-opacity="0.8"/>
<path d="M463.036 119.99C451.371 114.726 438.681 112 425.839 112C412.997 112 400.308 114.726 388.643 119.99H463.036Z" fill="#E5CF00" fill-opacity="0.8"/>
<path d="M362.812 137.745C359.731 140.791 356.883 144.055 354.29 147.51H497.389C494.799 144.055 491.953 140.791 488.875 137.745H362.812Z" fill="#E5CF00" fill-opacity="0.8"/>
<path d="M351.174 151.949C349.113 155.084 347.262 158.345 345.631 161.714H506.047C504.416 158.345 502.565 155.084 500.504 151.949H351.174Z" fill="#E5CF00" fill-opacity="0.8"/>
<path d="M29.9998 -32C18.9021 -32 8.05358 -28.7743 -1.17385 -22.7308C-10.4013 -16.6873 -17.5932 -8.09752 -21.8401 1.95242C-26.087 12.0024 -27.1982 23.061 -25.0331 33.73C-22.8681 44.3989 -17.524 54.199 -9.67674 61.8909C-1.82945 69.5828 8.16859 74.821 19.0531 76.9432C29.9376 79.0654 41.2196 77.9762 51.4726 73.8134C61.7256 69.6506 70.4889 62.6011 76.6545 53.5564C82.8201 44.5117 86.1109 33.878 86.1109 23C86.1117 15.7771 84.6609 8.62478 81.8413 1.95153C79.0217 -4.72171 74.8886 -10.7852 69.6781 -15.8925C64.4675 -20.9999 58.2816 -25.0512 51.4735 -27.8149C44.6655 -30.5786 37.3687 -32.0007 29.9998 -32ZM29.9998 55.0482C23.5332 55.0482 17.2119 53.1686 11.8351 49.6471C6.45833 46.1256 2.26765 41.1204 -0.207006 35.2643C-2.68166 29.4083 -3.32914 22.9645 -2.06758 16.7477C-0.806007 10.531 2.30795 4.82054 6.88052 0.338518C11.4531 -4.1435 17.2789 -7.1958 23.6212 -8.43238C29.9635 -9.66897 36.5375 -9.03431 42.5119 -6.60866C48.4862 -4.18301 53.5926 -0.0753092 57.1852 5.19499C60.7779 10.4653 62.6954 16.6615 62.6954 23C62.6962 27.2089 61.851 31.3766 60.2082 35.2652C58.5654 39.1538 56.157 42.6871 53.1208 45.6632C50.0846 48.6393 46.48 50.9999 42.5128 52.6102C38.5456 54.2205 34.2937 55.049 29.9998 55.0482Z" fill="#E6E6E6" fill-opacity="0.85"/>
</g>
</g>
<defs>
<filter id="filter0_d_520_884" x="0" y="0" width="464" height="197" filterUnits="userSpaceOnUse" color-interpolation-filters="sRGB">
<feFlood flood-opacity="0" result="BackgroundImageFix"/>
<feColorMatrix in="SourceAlpha" type="matrix" values="0 0 0 0 0 0 0 0 0 0 0 0 0 0 0 0 0 0 127 0" result="hardAlpha"/>
<feOffset dy="7"/>
<feGaussianBlur stdDeviation="15"/>
<feComposite in2="hardAlpha" operator="out"/>
<feColorMatrix type="matrix" values="0 0 0 0 0 0 0 0 0 0 0 0 0 0 0 0 0 0 0.35 0"/>
<feBlend mode="normal" in2="BackgroundImageFix" result="effect1_dropShadow_520_884"/>
<feBlend mode="normal" in="SourceGraphic" in2="effect1_dropShadow_520_884" result="shape"/>
</filter>
<linearGradient id="paint0_linear_520_884" x1="434" y1="160" x2="20.4953" y2="17.9986" gradientUnits="userSpaceOnUse">
<stop stop-color="#021726"/>
<stop offset="1" stop-color="#021726" stop-opacity="0.58"/>
</linearGradient>
<clipPath id="clip0_520_884">
<rect x="30" y="23" width="404" height="137" rx="15" fill="white"/>
</clipPath>
</defs>
</svg>
