<svg width="25" height="25" viewBox="0 0 25 25" fill="none" xmlns="http://www.w3.org/2000/svg">
<ellipse cx="12.2672" cy="12.6494" rx="11.8915" ry="11.9424" fill="white"/>
<g clip-path="url(#clip0_9_49446)">
<path d="M18.7187 7.98914C18.3696 7.63842 17.9552 7.36021 17.499 7.17039C17.0429 6.98057 16.5539 6.88287 16.0602 6.88287C15.5664 6.88287 15.0775 6.98057 14.6213 7.17039C14.1652 7.36021 13.7507 7.63842 13.4017 7.98914L12.6772 8.71667L11.9528 7.98914C11.2477 7.28105 10.2914 6.88324 9.29431 6.88324C8.29717 6.88324 7.34088 7.28105 6.6358 7.98914C5.93072 8.69724 5.53461 9.65763 5.53461 10.659C5.53461 11.6604 5.93072 12.6208 6.6358 13.3289L7.36022 14.0564L12.6772 19.3962L17.9943 14.0564L18.7187 13.3289C19.0679 12.9784 19.3449 12.5621 19.534 12.104C19.723 11.6459 19.8202 11.1549 19.8202 10.659C19.8202 10.1632 19.723 9.67213 19.534 9.21403C19.3449 8.75592 19.0679 8.3397 18.7187 7.98914V7.98914Z" stroke="#FBB017" stroke-width="2" stroke-linecap="round" stroke-linejoin="round"/>
</g>
<defs>
<clipPath id="clip0_9_49446">
<rect width="16.4021" height="16.4723" fill="white" transform="translate(4.4762 4.82507)"/>
</clipPath>
</defs>
</svg>
