<svg width="38" height="38" viewBox="0 0 38 38" fill="none" xmlns="http://www.w3.org/2000/svg">
<g filter="url(#filter0_d_576_695)">
<path d="M33.5 14.703C33.5 22.5377 27.0176 28.9059 19 28.9059C10.9824 28.9059 4.5 22.5377 4.5 14.703C4.5 6.86827 10.9824 0.5 19 0.5C27.0176 0.5 33.5 6.86827 33.5 14.703Z" stroke="#E5E7E5" shape-rendering="crispEdges"/>
</g>
<path d="M19.9422 8.47702C16.3531 8.38026 13.4127 11.2071 13.4127 14.6975H12.1505C11.8332 14.6975 11.6781 15.0708 11.9037 15.285L13.871 17.2203C14.0121 17.3585 14.2306 17.3585 14.3717 17.2203L16.339 15.285C16.5576 15.0708 16.4024 14.6975 16.0851 14.6975H14.823C14.823 12.002 17.0653 9.82479 19.8293 9.85935C22.4524 9.89391 24.6595 12.0573 24.6947 14.6284C24.73 17.3309 22.5088 19.5357 19.7588 19.5357C18.6236 19.5357 17.573 19.1555 16.7409 18.5128C16.4589 18.2985 16.064 18.3192 15.8101 18.5681C15.514 18.8583 15.5351 19.3491 15.8665 19.5979C16.9383 20.4273 18.2851 20.918 19.7588 20.918C23.3197 20.918 26.2037 18.0359 26.105 14.5178C26.0133 11.2762 23.2492 8.56687 19.9422 8.47702ZM19.5826 11.9328C19.2934 11.9328 19.0537 12.1678 19.0537 12.4512V14.9947C19.0537 15.2366 19.1877 15.4647 19.3992 15.5891L21.5992 16.8678C21.8531 17.0129 22.1774 16.93 22.3255 16.6881C22.4736 16.4393 22.389 16.1213 22.1422 15.9762L20.1114 14.7943V12.4443C20.1114 12.1678 19.8717 11.9328 19.5826 11.9328Z" fill="#E5E7E5"/>
<defs>
<filter id="filter0_d_576_695" x="0" y="0" width="38" height="37.406" filterUnits="userSpaceOnUse" color-interpolation-filters="sRGB">
<feFlood flood-opacity="0" result="BackgroundImageFix"/>
<feColorMatrix in="SourceAlpha" type="matrix" values="0 0 0 0 0 0 0 0 0 0 0 0 0 0 0 0 0 0 127 0" result="hardAlpha"/>
<feOffset dy="4"/>
<feGaussianBlur stdDeviation="2"/>
<feComposite in2="hardAlpha" operator="out"/>
<feColorMatrix type="matrix" values="0 0 0 0 0 0 0 0 0 0 0 0 0 0 0 0 0 0 0.25 0"/>
<feBlend mode="normal" in2="BackgroundImageFix" result="effect1_dropShadow_576_695"/>
<feBlend mode="normal" in="SourceGraphic" in2="effect1_dropShadow_576_695" result="shape"/>
</filter>
</defs>
</svg>
