<svg width="47" height="47" viewBox="0 0 47 47" fill="none" xmlns="http://www.w3.org/2000/svg">
<g filter="url(#filter0_d_60_19)">
<circle cx="23.5" cy="19.5" r="19" stroke="#E5E7E5" shape-rendering="crispEdges"/>
</g>
<g clip-path="url(#clip0_60_19)">
<path d="M26.3333 20C26.3333 20.9166 27.0833 21.6666 28 21.6666C28.9167 21.6666 29.6667 20.9166 29.6667 20C29.6667 19.0833 28.9167 18.3333 28 18.3333C27.0833 18.3333 26.3333 19.0833 26.3333 20ZM24.6667 20C24.6667 19.0833 23.9167 18.3333 23 18.3333C22.0833 18.3333 21.3333 19.0833 21.3333 20C21.3333 20.9166 22.0833 21.6666 23 21.6666C23.9167 21.6666 24.6667 20.9166 24.6667 20ZM19.6667 20C19.6667 19.0833 18.9167 18.3333 18 18.3333C17.0833 18.3333 16.3333 19.0833 16.3333 20C16.3333 20.9166 17.0833 21.6666 18 21.6666C18.9167 21.6666 19.6667 20.9166 19.6667 20Z" fill="#E5E7E5"/>
</g>
<defs>
<filter id="filter0_d_60_19" x="0" y="0" width="47" height="47" filterUnits="userSpaceOnUse" color-interpolation-filters="sRGB">
<feFlood flood-opacity="0" result="BackgroundImageFix"/>
<feColorMatrix in="SourceAlpha" type="matrix" values="0 0 0 0 0 0 0 0 0 0 0 0 0 0 0 0 0 0 127 0" result="hardAlpha"/>
<feOffset dy="4"/>
<feGaussianBlur stdDeviation="2"/>
<feComposite in2="hardAlpha" operator="out"/>
<feColorMatrix type="matrix" values="0 0 0 0 0 0 0 0 0 0 0 0 0 0 0 0 0 0 0.25 0"/>
<feBlend mode="normal" in2="BackgroundImageFix" result="effect1_dropShadow_60_19"/>
<feBlend mode="normal" in="SourceGraphic" in2="effect1_dropShadow_60_19" result="shape"/>
</filter>
<clipPath id="clip0_60_19">
<rect width="20" height="20" fill="white" transform="translate(33 10) rotate(90)"/>
</clipPath>
</defs>
</svg>
