<svg width="26" height="26" viewBox="0 0 26 26" fill="none" xmlns="http://www.w3.org/2000/svg">
<g clip-path="url(#clip0_411_430)">
<mask id="mask0_411_430" style="mask-type:luminance" maskUnits="userSpaceOnUse" x="0" y="0" width="26" height="26">
<path d="M3.10047e-07 0L0 26L26 26L26 3.10047e-07L3.10047e-07 0Z" fill="white"/>
</mask>
<g mask="url(#mask0_411_430)">
<path d="M8.66671 13C8.66671 11.8083 7.69171 10.8333 6.50004 10.8333C5.30837 10.8333 4.33337 11.8083 4.33337 13C4.33337 14.1916 5.30837 15.1666 6.50004 15.1666C7.69171 15.1666 8.66671 14.1916 8.66671 13ZM10.8334 13C10.8334 14.1916 11.8084 15.1666 13 15.1666C14.1917 15.1666 15.1667 14.1916 15.1667 13C15.1667 11.8083 14.1917 10.8333 13 10.8333C11.8084 10.8333 10.8334 11.8083 10.8334 13ZM17.3334 13C17.3334 14.1916 18.3084 15.1666 19.5 15.1666C20.6917 15.1666 21.6667 14.1916 21.6667 13C21.6667 11.8083 20.6917 10.8333 19.5 10.8333C18.3084 10.8333 17.3334 11.8083 17.3334 13Z" fill="#E5E7E5"/>
</g>
</g>
<defs>
<clipPath id="clip0_411_430">
<rect width="26" height="26" fill="white" transform="translate(0 26) rotate(-90)"/>
</clipPath>
</defs>
</svg>
