<svg width="38" height="37" viewBox="0 0 38 37" fill="none" xmlns="http://www.w3.org/2000/svg">
<g filter="url(#filter0_d_520_874)">
<path d="M33.0859 14.5C33.0859 22.2226 26.6962 28.5 18.7929 28.5C10.8897 28.5 4.5 22.2226 4.5 14.5C4.5 6.77739 10.8897 0.5 18.7929 0.5C26.6962 0.5 33.0859 6.77739 33.0859 14.5Z" stroke="#E5E7E5" shape-rendering="crispEdges"/>
</g>
<path d="M18.4139 21.0682C19.1093 21.0682 19.6782 20.5105 19.6782 19.8289H17.1495C17.1495 20.5105 17.7121 21.0682 18.4139 21.0682ZM22.2069 17.3502V14.252C22.2069 12.3496 21.1701 10.7571 19.3621 10.3357V9.91435C19.3621 9.40003 18.9386 8.98486 18.4139 8.98486C17.8892 8.98486 17.4656 9.40003 17.4656 9.91435V10.3357C15.6512 10.7571 14.6208 12.3434 14.6208 14.252V17.3502L13.3564 18.5896V19.2092H23.4713V18.5896L22.2069 17.3502Z" fill="#E5E7E5"/>
<defs>
<filter id="filter0_d_520_874" x="0" y="0" width="37.5859" height="37" filterUnits="userSpaceOnUse" color-interpolation-filters="sRGB">
<feFlood flood-opacity="0" result="BackgroundImageFix"/>
<feColorMatrix in="SourceAlpha" type="matrix" values="0 0 0 0 0 0 0 0 0 0 0 0 0 0 0 0 0 0 127 0" result="hardAlpha"/>
<feOffset dy="4"/>
<feGaussianBlur stdDeviation="2"/>
<feComposite in2="hardAlpha" operator="out"/>
<feColorMatrix type="matrix" values="0 0 0 0 0 0 0 0 0 0 0 0 0 0 0 0 0 0 0.25 0"/>
<feBlend mode="normal" in2="BackgroundImageFix" result="effect1_dropShadow_520_874"/>
<feBlend mode="normal" in="SourceGraphic" in2="effect1_dropShadow_520_874" result="shape"/>
</filter>
</defs>
</svg>
