<svg width="26" height="26" viewBox="0 0 26 26" fill="none" xmlns="http://www.w3.org/2000/svg">
<g clip-path="url(#clip0_411_422)">
<mask id="mask0_411_422" style="mask-type:luminance" maskUnits="userSpaceOnUse" x="0" y="0" width="26" height="26">
<path d="M26 0H0V26H26V0Z" fill="white"/>
</mask>
<g mask="url(#mask0_411_422)">
<path d="M20.8324 16.5317L18.0808 16.2175C17.4199 16.1417 16.7699 16.3692 16.3041 16.835L14.3108 18.8284C11.2449 17.2684 8.73159 14.7659 7.17159 11.6892L9.17576 9.68503C9.64159 9.2192 9.86909 8.5692 9.79326 7.90836L9.47909 5.17836C9.34909 4.0842 8.42826 3.26086 7.32326 3.26086H5.44909C4.22492 3.26086 3.20659 4.2792 3.28242 5.50336C3.85659 14.755 11.2558 22.1434 20.4966 22.7175C21.7208 22.7934 22.7391 21.775 22.7391 20.5509V18.6767C22.7499 17.5825 21.9266 16.6617 20.8324 16.5317Z" fill="#E5E7E5"/>
</g>
</g>
<defs>
<clipPath id="clip0_411_422">
<rect width="26" height="26" fill="white"/>
</clipPath>
</defs>
</svg>
