<svg width="21" height="21" viewBox="0 0 21 21" fill="none" xmlns="http://www.w3.org/2000/svg">
<mask id="mask0_35_308" style="mask-type:luminance" maskUnits="userSpaceOnUse" x="0" y="0" width="21" height="21">
<path d="M21 0H0V21H21V0Z" fill="white"/>
</mask>
<g mask="url(#mask0_35_308)">
<path d="M10.5 1.75C7.11375 1.75 4.375 4.48875 4.375 7.875C4.375 12.4688 10.5 19.25 10.5 19.25C10.5 19.25 16.625 12.4688 16.625 7.875C16.625 4.48875 13.8862 1.75 10.5 1.75ZM10.5 10.0625C9.2925 10.0625 8.3125 9.0825 8.3125 7.875C8.3125 6.6675 9.2925 5.6875 10.5 5.6875C11.7075 5.6875 12.6875 6.6675 12.6875 7.875C12.6875 9.0825 11.7075 10.0625 10.5 10.0625Z" fill="#E5CF00"/>
</g>
</svg>
