<svg width="159" height="159" viewBox="0 0 159 159" fill="none" xmlns="http://www.w3.org/2000/svg">
<g clip-path="url(#clip0_376_430)" filter="url(#filter0_d_376_430)">
<mask id="mask0_376_430" style="mask-type:luminance" maskUnits="userSpaceOnUse" x="51" y="51" width="58" height="58">
<path d="M109 51H51V109H109V51Z" fill="white"/>
</mask>
<g mask="url(#mask0_376_430)">
<path d="M87.25 77.5834V65.0892C87.25 63.8083 86.7425 62.5758 85.8242 61.6817L81.6917 57.5492C80.7492 56.6067 79.2267 56.6067 78.2842 57.5492L74.1758 61.6575C73.2575 62.5758 72.75 63.8083 72.75 65.0892V67.9167H63.0833C60.425 67.9167 58.25 70.0917 58.25 72.75V96.9167C58.25 99.575 60.425 101.75 63.0833 101.75H96.9167C99.575 101.75 101.75 99.575 101.75 96.9167V82.4167C101.75 79.7584 99.575 77.5834 96.9167 77.5834H87.25ZM67.9167 96.9167H63.0833V92.0834H67.9167V96.9167ZM67.9167 87.25H63.0833V82.4167H67.9167V87.25ZM67.9167 77.5834H63.0833V72.75H67.9167V77.5834ZM82.4167 96.9167H77.5833V92.0834H82.4167V96.9167ZM82.4167 87.25H77.5833V82.4167H82.4167V87.25ZM82.4167 77.5834H77.5833V72.75H82.4167V77.5834ZM82.4167 67.9167H77.5833V63.0833H82.4167V67.9167ZM96.9167 96.9167H92.0833V92.0834H96.9167V96.9167ZM96.9167 87.25H92.0833V82.4167H96.9167V87.25Z" fill="#021726"/>
</g>
</g>
<circle cx="79.5" cy="79.5" r="38.4043" stroke="#E6E6E6" stroke-opacity="0.75"/>
<circle cx="79.5" cy="79.5" r="50.8085" stroke="#E6E6E6" stroke-opacity="0.6"/>
<circle cx="79.4999" cy="79.4999" r="65.4681" stroke="#E6E6E6" stroke-opacity="0.4"/>
<circle cx="79.5" cy="79.5" r="79" stroke="#E6E6E6" stroke-opacity="0.2"/>
<defs>
<filter id="filter0_d_376_430" x="5" y="5" width="150" height="150" filterUnits="userSpaceOnUse" color-interpolation-filters="sRGB">
<feFlood flood-opacity="0" result="BackgroundImageFix"/>
<feColorMatrix in="SourceAlpha" type="matrix" values="0 0 0 0 0 0 0 0 0 0 0 0 0 0 0 0 0 0 127 0" result="hardAlpha"/>
<feOffset/>
<feGaussianBlur stdDeviation="23"/>
<feColorMatrix type="matrix" values="0 0 0 0 1 0 0 0 0 0.407843 0 0 0 0 0.00392157 0 0 0 1 0"/>
<feBlend mode="normal" in2="BackgroundImageFix" result="effect1_dropShadow_376_430"/>
<feBlend mode="normal" in="SourceGraphic" in2="effect1_dropShadow_376_430" result="shape"/>
</filter>
<clipPath id="clip0_376_430">
<rect width="58" height="58" fill="white" transform="translate(51 51)"/>
</clipPath>
</defs>
</svg>
