<svg width="51" height="49" viewBox="0 0 51 49" fill="none" xmlns="http://www.w3.org/2000/svg">
<path fill-rule="evenodd" clip-rule="evenodd" d="M22.8457 27.0782C22.8457 28.5916 24.0343 29.8184 25.5005 29.8184C26.9667 29.8184 28.1553 28.5916 28.1553 27.0782V18.8575C28.1553 17.3441 26.9667 16.1172 25.5005 16.1172C24.0343 16.1172 22.8457 17.3441 22.8457 18.8575V27.0782ZM28.1553 35.2682C28.1553 33.7547 26.9667 32.5279 25.5005 32.5279C24.0343 32.5279 22.8457 33.7547 22.8457 35.2682V35.2989C22.8457 36.8123 24.0343 38.0391 25.5005 38.0391C26.9667 38.0391 28.1553 36.8123 28.1553 35.2989V35.2682ZM18.5379 4.22837C21.5725 -1.40946 29.4277 -1.40946 32.4621 4.22837L49.9864 36.7871C52.9353 42.2664 49.0968 49 43.0242 49H7.97584C1.90311 49 -1.93544 42.2664 1.01371 36.7871L18.5379 4.22837Z" fill="#8F1E2F" stroke="black" stroke-width="0.00103"/>
</svg>
