<svg width="26" height="26" viewBox="0 0 26 26" fill="none" xmlns="http://www.w3.org/2000/svg">
<path d="M21.6666 4.33337H4.33329C3.14163 4.33337 2.17746 5.30837 2.17746 6.50004L2.16663 19.5C2.16663 20.6917 3.14163 21.6667 4.33329 21.6667H21.6666C22.8583 21.6667 23.8333 20.6917 23.8333 19.5V6.50004C23.8333 5.30837 22.8583 4.33337 21.6666 4.33337ZM4.33329 9.75004H15.7083V13.5417H4.33329V9.75004ZM4.33329 15.7084H15.7083V19.5H5.41663C4.82079 19.5 4.33329 19.0125 4.33329 18.4167V15.7084ZM20.5833 19.5H17.875V9.75004H21.6666V18.4167C21.6666 19.0125 21.1791 19.5 20.5833 19.5Z" fill="#E5E7E5"/>
</svg>
