<svg width="113" height="110" viewBox="0 0 113 110" fill="none" xmlns="http://www.w3.org/2000/svg">
<path d="M56.1111 2.95399e-07C45.0134 2.95399e-07 34.1649 3.22569 24.9375 9.26917C15.7101 15.3127 8.51815 23.9025 4.27123 33.9524C0.0243121 44.0024 -1.08688 55.061 1.07818 65.73C3.24324 76.3989 8.58731 86.199 16.4346 93.8909C24.2819 101.583 34.2799 106.821 45.1644 108.943C56.0489 111.065 67.331 109.976 77.5839 105.813C87.8369 101.651 96.6003 94.6011 102.766 85.5564C108.931 76.5117 112.222 65.878 112.222 55C112.223 47.7771 110.772 40.6248 107.953 33.9515C105.133 27.2783 101 21.2148 95.7894 16.1075C90.5789 11.0001 84.3929 6.94885 77.5848 4.1851C70.7768 1.42136 63.48 -0.00074831 56.1111 2.95399e-07ZM56.1111 87.0482C49.6446 87.0482 43.3232 85.1686 37.9464 81.6471C32.5697 78.1256 28.379 73.1204 25.9043 67.2643C23.4297 61.4083 22.7822 54.9645 24.0438 48.7477C25.3053 42.531 28.4193 36.8205 32.9918 32.3385C37.5644 27.8565 43.3902 24.8042 49.7325 23.5676C56.0749 22.331 62.6489 22.9657 68.6232 25.3913C74.5976 27.817 79.7039 31.9247 83.2966 37.195C86.8892 42.4653 88.8068 48.6615 88.8068 55C88.8075 59.2089 87.9624 63.3766 86.3195 67.2652C84.6767 71.1538 82.2684 74.6871 79.2322 77.6632C76.1959 80.6393 72.5913 82.9999 68.6241 84.6102C64.657 86.2205 60.405 87.049 56.1111 87.0482Z" fill="#E6E6E6" fill-opacity="0.85"/>
</svg>
