<svg width="178" height="174" viewBox="0 0 178 174" fill="none" xmlns="http://www.w3.org/2000/svg">
<path d="M8.98486 125.174C10.6683 128.545 12.5711 131.807 14.6817 134.939H162.835C164.945 131.807 166.848 128.545 168.531 125.174H8.98486Z" fill="#E5CF00" fill-opacity="0.8"/>
<path d="M131.326 163.347C136.472 160.568 141.326 157.297 145.817 153.582H31.6362C36.1265 157.297 40.9805 160.568 46.1273 163.347H131.326Z" fill="#E5CF00" fill-opacity="0.8"/>
<path d="M3.41455 110.969C4.38019 114.291 5.55069 117.552 6.91957 120.735H170.596C171.965 117.552 173.135 114.291 174.101 110.969H3.41455Z" fill="#E5CF00" fill-opacity="0.8"/>
<path d="M0 87.0001C0 88.7756 0.0633984 90.5511 0.172081 92.3266H177.343C177.452 90.5511 177.515 88.7756 177.515 87.0001C177.515 85.5086 177.515 84.035 177.398 82.5613H0.11774C0 84.035 0 85.5086 0 87.0001Z" fill="#E5CF00" fill-opacity="0.8"/>
<path d="M0.562012 96.7654C0.936573 100.049 1.49899 103.309 2.2466 106.531H175.234C175.981 103.309 176.544 100.049 176.918 96.7654H0.562012Z" fill="#E5CF00" fill-opacity="0.8"/>
<path d="M17.8877 139.378C20.555 142.842 23.4825 146.106 26.6457 149.143H150.87C154.034 146.106 156.961 142.842 159.628 139.378H17.8877Z" fill="#E5CF00" fill-opacity="0.8"/>
<path d="M43.0206 12.4287C38.6174 15.0322 34.4509 18.0023 30.5674 21.3063H146.949C143.065 18.0023 138.899 15.0322 134.495 12.4287H43.0206Z" fill="#E5CF00" fill-opacity="0.8"/>
<path d="M125.955 7.98988C114.29 2.72591 101.6 0.000244141 88.7583 0.000244141C75.9163 0.000244141 63.2267 2.72591 51.5615 7.98988H125.955Z" fill="#E5CF00" fill-opacity="0.8"/>
<path d="M55.7637 167.786C76.9478 176.072 100.568 176.072 121.752 167.786H55.7637Z" fill="#E5CF00" fill-opacity="0.8"/>
<path d="M25.731 25.7449C22.6501 28.7911 19.8016 32.0549 17.2085 35.5102H160.308C157.717 32.0552 154.872 28.7914 151.794 25.7449H25.731Z" fill="#E5CF00" fill-opacity="0.8"/>
<path d="M14.0926 39.949C12.0321 43.0835 10.1806 46.3454 8.5498 49.7143H168.966C167.335 46.3454 165.484 43.0835 163.423 39.949H14.0926Z" fill="#E5CF00" fill-opacity="0.8"/>
<path d="M6.54842 54.1531C5.22762 57.3412 4.09662 60.6018 3.16113 63.9184H174.337C173.401 60.6018 172.27 57.3412 170.949 54.1531H6.54842Z" fill="#E5CF00" fill-opacity="0.8"/>
<path d="M2.04714 68.3572C1.33042 71.5806 0.798245 74.8408 0.453125 78.1225H177.063C176.718 74.8408 176.186 71.5806 175.469 68.3572H2.04714Z" fill="#E5CF00" fill-opacity="0.8"/>
</svg>
