<svg width="22" height="21" viewBox="0 0 22 21" fill="none" xmlns="http://www.w3.org/2000/svg">
<path d="M19.901 0.886099C19.901 1.06135 19.954 1.23267 20.0533 1.37839C20.1527 1.52411 20.2939 1.63768 20.459 1.70475C20.6242 1.77181 20.806 1.78936 20.9813 1.75517C21.1567 1.72098 21.3178 1.63659 21.4442 1.51266C21.5706 1.38874 21.6567 1.23085 21.6916 1.05897C21.7265 0.887082 21.7086 0.708917 21.6402 0.547003C21.5717 0.38509 21.4559 0.2467 21.3072 0.149335C21.1586 0.0519688 20.9838 0 20.805 0C20.5652 0 20.3353 0.0933566 20.1658 0.259532C19.9962 0.425708 19.901 0.651091 19.901 0.886099Z" fill="#0571B9"/>
<path d="M15.9189 0.886104C15.9183 1.06212 15.9709 1.23436 16.0702 1.38102C16.1695 1.52768 16.311 1.64215 16.4767 1.70995C16.6424 1.77774 16.825 1.79581 17.0012 1.76185C17.1774 1.7279 17.3393 1.64346 17.4665 1.51922C17.5937 1.39498 17.6805 1.23653 17.7157 1.06394C17.751 0.891352 17.7332 0.712386 17.6646 0.549707C17.5961 0.387028 17.4798 0.247955 17.3305 0.150099C17.1813 0.052243 17.0057 6.8148e-06 16.8262 5.69224e-06C16.7072 -0.000412343 16.5893 0.0221988 16.4792 0.0665422C16.3692 0.110886 16.2691 0.176089 16.1848 0.258412C16.1006 0.340736 16.0337 0.43856 15.988 0.546274C15.9424 0.653988 15.9189 0.769473 15.9189 0.886104Z" fill="#0571B9"/>
<path d="M11.94 0.886099C11.94 1.06135 11.9931 1.23267 12.0924 1.37839C12.1917 1.52411 12.3329 1.63768 12.4981 1.70475C12.6633 1.77181 12.845 1.78936 13.0204 1.75517C13.1958 1.72098 13.3568 1.63659 13.4833 1.51266C13.6097 1.38874 13.6958 1.23085 13.7307 1.05897C13.7656 0.887082 13.7477 0.708917 13.6792 0.547003C13.6108 0.38509 13.4949 0.2467 13.3463 0.149335C13.1976 0.0519688 13.0228 0 12.844 0C12.6043 0 12.3744 0.0933566 12.2048 0.259532C12.0353 0.425708 11.94 0.651091 11.94 0.886099Z" fill="#0571B9"/>
<path d="M7.96104 0.886099C7.96104 1.06135 8.01406 1.23267 8.11339 1.37839C8.21273 1.52411 8.35391 1.63768 8.5191 1.70475C8.68428 1.77181 8.86605 1.78936 9.0414 1.75517C9.21676 1.72098 9.37784 1.63659 9.50427 1.51266C9.63069 1.38874 9.71679 1.23085 9.75167 1.05897C9.78655 0.887082 9.76865 0.708917 9.70023 0.547003C9.63181 0.38509 9.51594 0.2467 9.36728 0.149335C9.21862 0.0519688 9.04384 0 8.86504 0C8.62529 0 8.39535 0.0933566 8.22582 0.259532C8.05629 0.425708 7.96104 0.651091 7.96104 0.886099Z" fill="#0571B9"/>
<path d="M3.97898 0.886104C3.97834 1.06212 4.03101 1.23436 4.1303 1.38102C4.2296 1.52768 4.37107 1.64215 4.53679 1.70995C4.7025 1.77774 4.88502 1.79581 5.06122 1.76185C5.23742 1.7279 5.39938 1.64346 5.52658 1.51922C5.65379 1.39498 5.74052 1.23653 5.77579 1.06394C5.81106 0.891352 5.79328 0.712386 5.72471 0.549707C5.65614 0.387028 5.53986 0.247955 5.39059 0.150099C5.24133 0.052243 5.0658 6.8148e-06 4.88622 5.69224e-06C4.76724 -0.000412343 4.64934 0.0221988 4.53928 0.0665422C4.42923 0.110886 4.32919 0.176089 4.2449 0.258412C4.16062 0.340736 4.09374 0.43856 4.0481 0.546274C4.00247 0.653988 3.97898 0.769473 3.97898 0.886104Z" fill="#0571B9"/>
<path d="M0.000105844 0.886099C0.000105844 1.06135 0.0531244 1.23267 0.152457 1.37839C0.25179 1.52411 0.392975 1.63768 0.55816 1.70475C0.723344 1.77181 0.905108 1.78936 1.08047 1.75517C1.25583 1.72098 1.4169 1.63659 1.54333 1.51266C1.66976 1.38874 1.75585 1.23085 1.79074 1.05897C1.82562 0.887082 1.80771 0.708917 1.73929 0.547003C1.67087 0.38509 1.555 0.2467 1.40634 0.149335C1.25768 0.0519688 1.0829 0 0.904106 0C0.66435 0 0.434413 0.0933566 0.26488 0.259532C0.0953475 0.425708 0.000105844 0.651091 0.000105844 0.886099Z" fill="#0571B9"/>
<path d="M19.901 5.49767C19.901 5.67292 19.954 5.84424 20.0533 5.98996C20.1527 6.13568 20.2939 6.24925 20.459 6.31632C20.6242 6.38339 20.806 6.40093 20.9813 6.36674C21.1567 6.33255 21.3178 6.24816 21.4442 6.12424C21.5706 6.00031 21.6567 5.84243 21.6916 5.67054C21.7265 5.49865 21.7086 5.32049 21.6402 5.15858C21.5717 4.99666 21.4559 4.85827 21.3072 4.76091C21.1586 4.66354 20.9838 4.61157 20.805 4.61157C20.5652 4.61157 20.3353 4.70493 20.1658 4.8711C19.9962 5.03728 19.901 5.26266 19.901 5.49767Z" fill="#0571B9"/>
<path d="M15.9189 5.49768C15.9183 5.67369 15.9709 5.84594 16.0702 5.99259C16.1695 6.13925 16.311 6.25373 16.4767 6.32152C16.6424 6.38931 16.825 6.40738 17.0012 6.37343C17.1774 6.33947 17.3393 6.25503 17.4665 6.13079C17.5937 6.00655 17.6805 5.8481 17.7157 5.67551C17.751 5.50292 17.7332 5.32396 17.6646 5.16128C17.5961 4.9986 17.4798 4.85953 17.3305 4.76167C17.1813 4.66381 17.0057 4.61158 16.8262 4.61158C16.7072 4.61116 16.5893 4.63377 16.4792 4.67811C16.3692 4.72246 16.2691 4.78766 16.1848 4.86998C16.1006 4.95231 16.0337 5.05013 15.988 5.15785C15.9424 5.26556 15.9189 5.38104 15.9189 5.49768Z" fill="#0571B9"/>
<path d="M11.94 5.49767C11.94 5.67292 11.9931 5.84424 12.0924 5.98996C12.1917 6.13568 12.3329 6.24925 12.4981 6.31632C12.6633 6.38339 12.845 6.40093 13.0204 6.36674C13.1958 6.33255 13.3568 6.24816 13.4833 6.12424C13.6097 6.00031 13.6958 5.84243 13.7307 5.67054C13.7656 5.49865 13.7477 5.32049 13.6792 5.15858C13.6108 4.99666 13.4949 4.85827 13.3463 4.76091C13.1976 4.66354 13.0228 4.61157 12.844 4.61157C12.6043 4.61157 12.3744 4.70493 12.2048 4.8711C12.0353 5.03728 11.94 5.26266 11.94 5.49767Z" fill="#0571B9"/>
<path d="M7.96104 5.49767C7.96104 5.67292 8.01406 5.84424 8.11339 5.98996C8.21273 6.13568 8.35391 6.24925 8.5191 6.31632C8.68428 6.38339 8.86605 6.40093 9.0414 6.36674C9.21676 6.33255 9.37784 6.24816 9.50427 6.12424C9.63069 6.00031 9.71679 5.84243 9.75167 5.67054C9.78655 5.49865 9.76865 5.32049 9.70023 5.15858C9.63181 4.99666 9.51594 4.85827 9.36728 4.76091C9.21862 4.66354 9.04384 4.61157 8.86504 4.61157C8.62529 4.61157 8.39535 4.70493 8.22582 4.8711C8.05629 5.03728 7.96104 5.26266 7.96104 5.49767Z" fill="#0571B9"/>
<path d="M3.97898 5.49768C3.97834 5.67369 4.03101 5.84594 4.1303 5.99259C4.2296 6.13925 4.37107 6.25373 4.53679 6.32152C4.7025 6.38931 4.88502 6.40738 5.06122 6.37343C5.23742 6.33947 5.39938 6.25503 5.52658 6.13079C5.65379 6.00655 5.74052 5.8481 5.77579 5.67551C5.81106 5.50292 5.79328 5.32396 5.72471 5.16128C5.65614 4.9986 5.53986 4.85953 5.39059 4.76167C5.24133 4.66381 5.0658 4.61158 4.88622 4.61158C4.76724 4.61116 4.64934 4.63377 4.53928 4.67811C4.42923 4.72246 4.32919 4.78766 4.2449 4.86998C4.16062 4.95231 4.09374 5.05013 4.0481 5.15785C4.00247 5.26556 3.97898 5.38104 3.97898 5.49768Z" fill="#0571B9"/>
<path d="M0.000105844 5.49767C0.000105844 5.67292 0.0531244 5.84424 0.152457 5.98996C0.25179 6.13568 0.392975 6.24925 0.55816 6.31632C0.723344 6.38339 0.905108 6.40093 1.08047 6.36674C1.25583 6.33255 1.4169 6.24816 1.54333 6.12424C1.66976 6.00031 1.75585 5.84243 1.79074 5.67054C1.82562 5.49865 1.80771 5.32049 1.73929 5.15858C1.67087 4.99666 1.555 4.85827 1.40634 4.76091C1.25768 4.66354 1.0829 4.61157 0.904106 4.61157C0.66435 4.61157 0.434413 4.70493 0.26488 4.8711C0.0953475 5.03728 0.000105844 5.26266 0.000105844 5.49767Z" fill="#0571B9"/>
<path d="M19.9011 10.1093C19.9036 10.2839 19.9588 10.454 20.0597 10.598C20.1606 10.7421 20.3026 10.8537 20.468 10.9188C20.6334 10.9839 20.8148 10.9997 20.9892 10.964C21.1637 10.9284 21.3236 10.8431 21.4487 10.7186C21.5739 10.5942 21.6587 10.4363 21.6925 10.2648C21.7264 10.0933 21.7077 9.91576 21.639 9.75458C21.5702 9.59341 21.4543 9.45576 21.3059 9.35895C21.1576 9.26213 20.9833 9.21047 20.8051 9.21045C20.6853 9.21044 20.5666 9.23377 20.4561 9.27909C20.3456 9.32442 20.2453 9.39082 20.1612 9.47446C20.0771 9.55809 20.0108 9.65728 19.9661 9.76625C19.9215 9.87523 19.8994 9.99182 19.9011 10.1093Z" fill="#0571B9"/>
<path d="M15.9189 10.1093C15.9189 10.2851 15.9721 10.4571 16.0718 10.6033C16.1715 10.7495 16.3132 10.8635 16.479 10.9308C16.6447 10.9981 16.8272 11.0158 17.0032 10.9814C17.1791 10.9471 17.3408 10.8624 17.4677 10.7381C17.5946 10.6137 17.681 10.4552 17.716 10.2827C17.751 10.1102 17.733 9.93143 17.6643 9.76894C17.5957 9.60645 17.4794 9.46756 17.3302 9.36985C17.181 9.27213 17.0056 9.21998 16.8262 9.21998C16.7069 9.21956 16.5887 9.24227 16.4785 9.28681C16.3682 9.33136 16.268 9.39684 16.1837 9.4795C16.0994 9.56216 16.0325 9.66036 15.9871 9.76844C15.9417 9.87653 15.9185 9.99235 15.9189 10.1093Z" fill="#0571B9"/>
<path d="M11.9401 10.1093C11.9427 10.2839 11.9979 10.454 12.0988 10.598C12.1996 10.7421 12.3417 10.8537 12.5071 10.9188C12.6725 10.9839 12.8538 10.9997 13.0283 10.964C13.2028 10.9284 13.3627 10.8431 13.4878 10.7186C13.6129 10.5942 13.6978 10.4363 13.7316 10.2648C13.7654 10.0933 13.7468 9.91576 13.678 9.75458C13.6092 9.59341 13.4934 9.45576 13.345 9.35895C13.1966 9.26213 13.0224 9.21047 12.8441 9.21045C12.7243 9.21044 12.6057 9.23377 12.4952 9.27909C12.3846 9.32442 12.2844 9.39082 12.2003 9.47446C12.1162 9.55809 12.0499 9.65728 12.0052 9.76625C11.9605 9.87523 11.9384 9.99182 11.9401 10.1093Z" fill="#0571B9"/>
<path d="M7.96114 10.1093C7.96369 10.2839 8.01887 10.454 8.11975 10.598C8.22062 10.7421 8.36268 10.8537 8.52808 10.9188C8.69347 10.9839 8.87481 10.9997 9.04931 10.964C9.2238 10.9284 9.38367 10.8431 9.5088 10.7186C9.63393 10.5942 9.71875 10.4363 9.7526 10.2648C9.78644 10.0933 9.7678 9.91576 9.69901 9.75458C9.63023 9.59341 9.51437 9.45576 9.366 9.35895C9.21763 9.26213 9.04337 9.21047 8.86514 9.21045C8.74532 9.21044 8.6267 9.23377 8.51617 9.27909C8.40564 9.32442 8.3054 9.39082 8.22129 9.47446C8.13717 9.55809 8.07085 9.65728 8.02619 9.76625C7.98153 9.87523 7.95942 9.99182 7.96114 10.1093Z" fill="#0571B9"/>
<path d="M3.97898 10.1093C3.97898 10.2851 4.03219 10.4571 4.13187 10.6033C4.23156 10.7495 4.37326 10.8635 4.53903 10.9308C4.70481 10.9981 4.88722 11.0158 5.06321 10.9814C5.2392 10.9471 5.40085 10.8624 5.52773 10.7381C5.65461 10.6137 5.74102 10.4552 5.77602 10.2827C5.81103 10.1102 5.79306 9.93143 5.7244 9.76894C5.65573 9.60645 5.53945 9.46756 5.39025 9.36985C5.24106 9.27213 5.06565 9.21998 4.88622 9.21998C4.76696 9.21956 4.64879 9.24227 4.53852 9.28681C4.42826 9.33136 4.32808 9.39684 4.24375 9.4795C4.15942 9.56216 4.09261 9.66036 4.04716 9.76844C4.00172 9.87653 3.97855 9.99235 3.97898 10.1093Z" fill="#0571B9"/>
<path d="M0.000198711 10.1093C0.0027541 10.2839 0.0579358 10.454 0.158809 10.598C0.259683 10.7421 0.401747 10.8537 0.56714 10.9188C0.732533 10.9839 0.913875 10.9997 1.08837 10.964C1.26287 10.9284 1.42273 10.8431 1.54786 10.7186C1.673 10.5942 1.75782 10.4363 1.79166 10.2648C1.8255 10.0933 1.80686 9.91576 1.73807 9.75458C1.66929 9.59341 1.55343 9.45576 1.40506 9.35895C1.25669 9.26213 1.08244 9.21047 0.904199 9.21045C0.784385 9.21044 0.665763 9.23377 0.555232 9.27909C0.4447 9.32442 0.344464 9.39082 0.260348 9.47446C0.176232 9.55809 0.109916 9.65728 0.0652552 9.76625C0.0205946 9.87523 -0.00151904 9.99182 0.000198711 10.1093Z" fill="#0571B9"/>
<path d="M19.901 14.7174C19.901 14.8927 19.954 15.064 20.0533 15.2097C20.1527 15.3554 20.2939 15.469 20.459 15.536C20.6242 15.6031 20.806 15.6207 20.9813 15.5865C21.1567 15.5523 21.3178 15.4679 21.4442 15.344C21.5706 15.22 21.6567 15.0622 21.6916 14.8903C21.7265 14.7184 21.7086 14.5402 21.6402 14.3783C21.5717 14.2164 21.4559 14.078 21.3072 13.9806C21.1586 13.8833 20.9838 13.8313 20.805 13.8313C20.5652 13.8313 20.3353 13.9247 20.1658 14.0908C19.9962 14.257 19.901 14.4824 19.901 14.7174Z" fill="#0571B9"/>
<path d="M15.9189 14.7174C15.9183 14.8934 15.9709 15.0657 16.0702 15.2123C16.1695 15.359 16.311 15.4735 16.4767 15.5412C16.6424 15.609 16.825 15.6271 17.0012 15.5932C17.1774 15.5592 17.3393 15.4748 17.4665 15.3505C17.5937 15.2263 17.6805 15.0678 17.7157 14.8952C17.751 14.7227 17.7332 14.5437 17.6646 14.381C17.5961 14.2183 17.4798 14.0793 17.3305 13.9814C17.1813 13.8835 17.0057 13.8313 16.8262 13.8313C16.7072 13.8309 16.5893 13.8535 16.4792 13.8978C16.3692 13.9422 16.2691 14.0074 16.1848 14.0897C16.1006 14.172 16.0337 14.2699 15.988 14.3776C15.9424 14.4853 15.9189 14.6008 15.9189 14.7174Z" fill="#0571B9"/>
<path d="M11.94 14.7174C11.94 14.8927 11.9931 15.064 12.0924 15.2097C12.1917 15.3554 12.3329 15.469 12.4981 15.536C12.6633 15.6031 12.845 15.6207 13.0204 15.5865C13.1958 15.5523 13.3568 15.4679 13.4833 15.344C13.6097 15.22 13.6958 15.0622 13.7307 14.8903C13.7656 14.7184 13.7477 14.5402 13.6792 14.3783C13.6108 14.2164 13.4949 14.078 13.3463 13.9806C13.1976 13.8833 13.0228 13.8313 12.844 13.8313C12.6043 13.8313 12.3744 13.9247 12.2048 14.0908C12.0353 14.257 11.94 14.4824 11.94 14.7174Z" fill="#0571B9"/>
<path d="M7.96104 14.7174C7.96104 14.8927 8.01406 15.064 8.11339 15.2097C8.21273 15.3554 8.35391 15.469 8.5191 15.536C8.68428 15.6031 8.86605 15.6207 9.0414 15.5865C9.21676 15.5523 9.37784 15.4679 9.50427 15.344C9.63069 15.22 9.71679 15.0622 9.75167 14.8903C9.78655 14.7184 9.76865 14.5402 9.70023 14.3783C9.63181 14.2164 9.51594 14.078 9.36728 13.9806C9.21862 13.8833 9.04384 13.8313 8.86504 13.8313C8.62529 13.8313 8.39535 13.9247 8.22582 14.0908C8.05629 14.257 7.96104 14.4824 7.96104 14.7174Z" fill="#0571B9"/>
<path d="M4.88604 15.6035C4.38678 15.6035 3.98204 15.2068 3.98204 14.7174C3.98204 14.228 4.38678 13.8313 4.88604 13.8313C5.38531 13.8313 5.79004 14.228 5.79004 14.7174C5.79004 15.2068 5.38531 15.6035 4.88604 15.6035Z" fill="#0571B9"/>
<path d="M0.904105 15.6035C0.40484 15.6035 0.0001055 15.2068 0.0001055 14.7174C0.0001055 14.228 0.40484 13.8313 0.904105 13.8313C1.40337 13.8313 1.80811 14.228 1.80811 14.7174C1.80811 15.2068 1.40337 15.6035 0.904105 15.6035Z" fill="#0571B9"/>
<path d="M19.901 19.329C19.901 19.5042 19.954 19.6755 20.0533 19.8213C20.1527 19.967 20.2939 20.0806 20.459 20.1476C20.6242 20.2147 20.806 20.2322 20.9813 20.198C21.1567 20.1639 21.3178 20.0795 21.4442 19.9555C21.5706 19.8316 21.6567 19.6737 21.6916 19.5018C21.7265 19.33 21.7086 19.1518 21.6402 18.9899C21.5717 18.828 21.4559 18.6896 21.3072 18.5922C21.1586 18.4948 20.9838 18.4429 20.805 18.4429C20.5652 18.4429 20.3353 18.5362 20.1658 18.7024C19.9962 18.8686 19.901 19.094 19.901 19.329Z" fill="#0571B9"/>
<path d="M15.9189 19.329C15.9183 19.505 15.9709 19.6772 16.0702 19.8239C16.1695 19.9706 16.311 20.085 16.4767 20.1528C16.6424 20.2206 16.825 20.2387 17.0012 20.2047C17.1774 20.1708 17.3393 20.0863 17.4665 19.9621C17.5937 19.8378 17.6805 19.6794 17.7157 19.5068C17.751 19.3342 17.7332 19.1553 17.6646 18.9926C17.5961 18.8299 17.4798 18.6908 17.3305 18.593C17.1813 18.4951 17.0057 18.4429 16.8262 18.4429C16.7072 18.4425 16.5893 18.4651 16.4792 18.5094C16.3692 18.5538 16.2691 18.619 16.1848 18.7013C16.1006 18.7836 16.0337 18.8814 15.988 18.9891C15.9424 19.0969 15.9189 19.2123 15.9189 19.329Z" fill="#0571B9"/>
<path d="M11.94 19.329C11.94 19.5042 11.9931 19.6755 12.0924 19.8213C12.1917 19.967 12.3329 20.0806 12.4981 20.1476C12.6633 20.2147 12.845 20.2322 13.0204 20.198C13.1958 20.1639 13.3568 20.0795 13.4833 19.9555C13.6097 19.8316 13.6958 19.6737 13.7307 19.5018C13.7656 19.33 13.7477 19.1518 13.6792 18.9899C13.6108 18.828 13.4949 18.6896 13.3463 18.5922C13.1976 18.4948 13.0228 18.4429 12.844 18.4429C12.6043 18.4429 12.3744 18.5362 12.2048 18.7024C12.0353 18.8686 11.94 19.094 11.94 19.329Z" fill="#0571B9"/>
<path d="M7.96104 19.329C7.96104 19.5042 8.01406 19.6755 8.11339 19.8213C8.21273 19.967 8.35391 20.0806 8.5191 20.1476C8.68428 20.2147 8.86605 20.2322 9.0414 20.198C9.21676 20.1639 9.37784 20.0795 9.50427 19.9555C9.63069 19.8316 9.71679 19.6737 9.75167 19.5018C9.78655 19.33 9.76865 19.1518 9.70023 18.9899C9.63181 18.828 9.51594 18.6896 9.36728 18.5922C9.21862 18.4948 9.04384 18.4429 8.86504 18.4429C8.62529 18.4429 8.39535 18.5362 8.22582 18.7024C8.05629 18.8686 7.96104 19.094 7.96104 19.329Z" fill="#0571B9"/>
<path d="M4.88604 20.2151C4.38678 20.2151 3.98204 19.8183 3.98204 19.329C3.98204 18.8396 4.38678 18.4429 4.88604 18.4429C5.38531 18.4429 5.79004 18.8396 5.79004 19.329C5.79004 19.8183 5.38531 20.2151 4.88604 20.2151Z" fill="#0571B9"/>
<path d="M0.904105 20.2151C0.40484 20.2151 0.0001055 19.8183 0.0001055 19.329C0.0001055 18.8396 0.40484 18.4429 0.904105 18.4429C1.40337 18.4429 1.80811 18.8396 1.80811 19.329C1.80811 19.8183 1.40337 20.2151 0.904105 20.2151Z" fill="#0571B9"/>
</svg>
