<svg width="25" height="24" viewBox="0 0 25 24" fill="none" xmlns="http://www.w3.org/2000/svg">
<path d="M2.05663 1.00795C2.05663 1.20731 1.99632 1.40218 1.88333 1.56794C1.77034 1.7337 1.60973 1.86289 1.42183 1.93918C1.23393 2.01547 1.02717 2.03543 0.827701 1.99654C0.628228 1.95765 0.444999 1.86165 0.301187 1.72068C0.157375 1.57972 0.059437 1.40012 0.0197592 1.20459C-0.0199185 1.00907 0.00044555 0.806405 0.0782763 0.622226C0.156107 0.438047 0.287909 0.280626 0.457014 0.169871C0.62612 0.0591154 0.824934 0 1.02832 0C1.30104 0 1.5626 0.106195 1.75544 0.295222C1.94829 0.48425 2.05663 0.740627 2.05663 1.00795Z" fill="#E6E6E6"/>
<path d="M6.58646 1.00796C6.58719 1.20818 6.52728 1.40411 6.41433 1.57094C6.30137 1.73776 6.14045 1.86798 5.95195 1.9451C5.76344 2.02221 5.55582 2.04276 5.35539 2.00414C5.15496 1.96552 4.97073 1.86946 4.82603 1.72813C4.68134 1.58681 4.58268 1.40657 4.54256 1.21025C4.50244 1.01393 4.52266 0.810351 4.60066 0.625301C4.67866 0.440251 4.81093 0.282053 4.98073 0.17074C5.15052 0.0594273 5.35019 7.75196e-06 5.55446 6.47502e-06C5.68981 -0.000469047 5.82392 0.0252515 5.94911 0.0756929C6.07429 0.126134 6.18809 0.200304 6.28397 0.293949C6.37985 0.387593 6.45592 0.498869 6.50783 0.621396C6.55974 0.743922 6.58646 0.875288 6.58646 1.00796Z" fill="#E6E6E6"/>
<path d="M11.1123 1.00795C11.1123 1.20731 11.052 1.40218 10.939 1.56794C10.826 1.7337 10.6654 1.86289 10.4775 1.93918C10.2896 2.01547 10.0828 2.03543 9.88337 1.99654C9.68389 1.95765 9.50066 1.86165 9.35685 1.72068C9.21304 1.57972 9.1151 1.40012 9.07542 1.20459C9.03575 1.00907 9.05611 0.806405 9.13394 0.622226C9.21177 0.438047 9.34357 0.280626 9.51268 0.169871C9.68178 0.0591154 9.8806 0 10.084 0C10.3567 0 10.6183 0.106195 10.8111 0.295222C11.004 0.48425 11.1123 0.740627 11.1123 1.00795Z" fill="#E6E6E6"/>
<path d="M15.6387 1.00795C15.6387 1.20731 15.5784 1.40218 15.4654 1.56794C15.3524 1.7337 15.1918 1.86289 15.0039 1.93918C14.816 2.01547 14.6092 2.03543 14.4097 1.99654C14.2103 1.95765 14.027 1.86165 13.8832 1.72068C13.7394 1.57972 13.6415 1.40012 13.6018 1.20459C13.5621 1.00907 13.5825 0.806405 13.6603 0.622226C13.7381 0.438047 13.8699 0.280626 14.039 0.169871C14.2082 0.0591154 14.407 0 14.6103 0C14.8831 0 15.1446 0.106195 15.3375 0.295222C15.5303 0.48425 15.6387 0.740627 15.6387 1.00795Z" fill="#E6E6E6"/>
<path d="M20.1685 1.00796C20.1692 1.20818 20.1093 1.40411 19.9964 1.57094C19.8834 1.73776 19.7225 1.86798 19.534 1.9451C19.3455 2.02221 19.1379 2.04276 18.9374 2.00414C18.737 1.96552 18.5528 1.86946 18.4081 1.72813C18.2634 1.58681 18.1647 1.40657 18.1246 1.21025C18.0845 1.01393 18.1047 0.810351 18.1827 0.625301C18.2607 0.440251 18.393 0.282053 18.5628 0.17074C18.7325 0.0594273 18.9322 7.75196e-06 19.1365 6.47502e-06C19.2718 -0.000469047 19.406 0.0252515 19.5311 0.0756929C19.6563 0.126134 19.7701 0.200304 19.866 0.293949C19.9619 0.387593 20.038 0.498869 20.0899 0.621396C20.1418 0.743922 20.1685 0.875288 20.1685 1.00796Z" fill="#E6E6E6"/>
<path d="M24.6943 1.00795C24.6943 1.20731 24.634 1.40218 24.521 1.56794C24.408 1.7337 24.2474 1.86289 24.0595 1.93918C23.8716 2.01547 23.6649 2.03543 23.4654 1.99654C23.2659 1.95765 23.0827 1.86165 22.9389 1.72068C22.7951 1.57972 22.6971 1.40012 22.6575 1.20459C22.6178 1.00907 22.6381 0.806405 22.716 0.622226C22.7938 0.438047 22.9256 0.280626 23.0947 0.169871C23.2638 0.0591154 23.4626 0 23.666 0C23.9387 0 24.2003 0.106195 24.3931 0.295222C24.586 0.48425 24.6943 0.740627 24.6943 1.00795Z" fill="#E6E6E6"/>
<path d="M2.05663 6.25356C2.05663 6.45291 1.99632 6.64779 1.88333 6.81355C1.77034 6.9793 1.60973 7.1085 1.42183 7.18478C1.23393 7.26107 1.02717 7.28103 0.827701 7.24214C0.628228 7.20325 0.444999 7.10725 0.301187 6.96629C0.157375 6.82532 0.059437 6.64572 0.0197592 6.4502C-0.0199185 6.25468 0.00044555 6.05201 0.0782763 5.86783C0.156107 5.68365 0.287909 5.52623 0.457014 5.41548C0.62612 5.30472 0.824934 5.24561 1.02832 5.24561C1.30104 5.24561 1.5626 5.3518 1.75544 5.54083C1.94829 5.72986 2.05663 5.98623 2.05663 6.25356Z" fill="#E6E6E6"/>
<path d="M6.58646 6.25356C6.58719 6.45379 6.52728 6.64971 6.41433 6.81654C6.30137 6.98337 6.14045 7.11358 5.95195 7.1907C5.76344 7.26782 5.55582 7.28837 5.35539 7.24974C5.15496 7.21112 4.97073 7.11507 4.82603 6.97374C4.68134 6.83242 4.58268 6.65218 4.54256 6.45586C4.50244 6.25953 4.52266 6.05596 4.60066 5.87091C4.67866 5.68586 4.81093 5.52766 4.98073 5.41635C5.15052 5.30503 5.35019 5.24561 5.55446 5.24561C5.68981 5.24514 5.82392 5.27086 5.94911 5.3213C6.07429 5.37174 6.18809 5.44591 6.28397 5.53955C6.37985 5.6332 6.45592 5.74447 6.50783 5.867C6.55974 5.98953 6.58646 6.12089 6.58646 6.25356Z" fill="#E6E6E6"/>
<path d="M11.1123 6.25356C11.1123 6.45291 11.052 6.64779 10.939 6.81355C10.826 6.9793 10.6654 7.1085 10.4775 7.18478C10.2896 7.26107 10.0828 7.28103 9.88337 7.24214C9.68389 7.20325 9.50066 7.10725 9.35685 6.96629C9.21304 6.82532 9.1151 6.64572 9.07542 6.4502C9.03575 6.25468 9.05611 6.05201 9.13394 5.86783C9.21177 5.68365 9.34357 5.52623 9.51268 5.41548C9.68178 5.30472 9.8806 5.24561 10.084 5.24561C10.3567 5.24561 10.6183 5.3518 10.8111 5.54083C11.004 5.72986 11.1123 5.98623 11.1123 6.25356Z" fill="#E6E6E6"/>
<path d="M15.6387 6.25356C15.6387 6.45291 15.5784 6.64779 15.4654 6.81355C15.3524 6.9793 15.1918 7.1085 15.0039 7.18478C14.816 7.26107 14.6092 7.28103 14.4097 7.24214C14.2103 7.20325 14.027 7.10725 13.8832 6.96629C13.7394 6.82532 13.6415 6.64572 13.6018 6.4502C13.5621 6.25468 13.5825 6.05201 13.6603 5.86783C13.7381 5.68365 13.8699 5.52623 14.039 5.41548C14.2082 5.30472 14.407 5.24561 14.6103 5.24561C14.8831 5.24561 15.1446 5.3518 15.3375 5.54083C15.5303 5.72986 15.6387 5.98623 15.6387 6.25356Z" fill="#E6E6E6"/>
<path d="M20.1685 6.25356C20.1692 6.45379 20.1093 6.64971 19.9964 6.81654C19.8834 6.98337 19.7225 7.11358 19.534 7.1907C19.3455 7.26782 19.1379 7.28837 18.9374 7.24974C18.737 7.21112 18.5528 7.11507 18.4081 6.97374C18.2634 6.83242 18.1647 6.65218 18.1246 6.45586C18.0845 6.25953 18.1047 6.05596 18.1827 5.87091C18.2607 5.68586 18.393 5.52766 18.5628 5.41635C18.7325 5.30503 18.9322 5.24561 19.1365 5.24561C19.2718 5.24514 19.406 5.27086 19.5311 5.3213C19.6563 5.37174 19.7701 5.44591 19.866 5.53955C19.9619 5.6332 20.038 5.74447 20.0899 5.867C20.1418 5.98953 20.1685 6.12089 20.1685 6.25356Z" fill="#E6E6E6"/>
<path d="M24.6943 6.25356C24.6943 6.45291 24.634 6.64779 24.521 6.81355C24.408 6.9793 24.2474 7.1085 24.0595 7.18478C23.8716 7.26107 23.6649 7.28103 23.4654 7.24214C23.2659 7.20325 23.0827 7.10725 22.9389 6.96629C22.7951 6.82532 22.6971 6.64572 22.6575 6.4502C22.6178 6.25468 22.6381 6.05201 22.716 5.86783C22.7938 5.68365 22.9256 5.52623 23.0947 5.41548C23.2638 5.30472 23.4626 5.24561 23.666 5.24561C23.9387 5.24561 24.2003 5.3518 24.3931 5.54083C24.586 5.72986 24.6943 5.98623 24.6943 6.25356Z" fill="#E6E6E6"/>
<path d="M2.05652 11.4992C2.05362 11.6979 1.99085 11.8914 1.8761 12.0552C1.76136 12.2191 1.59976 12.346 1.41162 12.4201C1.22348 12.4941 1.0172 12.5121 0.818711 12.4716C0.620218 12.431 0.438372 12.3339 0.29603 12.1924C0.153689 12.0509 0.0572053 11.8713 0.0187078 11.6761C-0.0197897 11.481 0.00141707 11.2791 0.0796623 11.0958C0.157908 10.9124 0.289699 10.7559 0.458471 10.6457C0.627242 10.5356 0.825461 10.4768 1.02821 10.4768C1.1645 10.4768 1.29943 10.5033 1.42516 10.5549C1.5509 10.6064 1.66492 10.682 1.7606 10.7771C1.85628 10.8723 1.93172 10.9851 1.98252 11.109C2.03332 11.233 2.05848 11.3656 2.05652 11.4992Z" fill="#E6E6E6"/>
<path d="M6.58646 11.4994C6.58646 11.6994 6.52594 11.895 6.41254 12.0614C6.29914 12.2277 6.13797 12.3574 5.94939 12.4339C5.76082 12.5105 5.55332 12.5305 5.35313 12.4915C5.15294 12.4525 4.96906 12.3561 4.82473 12.2146C4.6804 12.0732 4.58211 11.8929 4.54229 11.6967C4.50247 11.5005 4.52291 11.2971 4.60102 11.1123C4.67913 10.9274 4.8114 10.7694 4.98111 10.6583C5.15083 10.5471 5.35035 10.4878 5.55446 10.4878C5.69012 10.4873 5.82454 10.5132 5.94997 10.5638C6.0754 10.6145 6.18936 10.689 6.28528 10.783C6.38121 10.877 6.45721 10.9887 6.5089 11.1117C6.56059 11.2346 6.58695 11.3664 6.58646 11.4994Z" fill="#E6E6E6"/>
<path d="M11.1122 11.4992C11.1093 11.6979 11.0465 11.8914 10.9318 12.0552C10.817 12.2191 10.6554 12.346 10.4673 12.4201C10.2791 12.4941 10.0729 12.5121 9.87437 12.4716C9.67588 12.431 9.49404 12.3339 9.35169 12.1924C9.20935 12.0509 9.11287 11.8713 9.07437 11.6761C9.03587 11.481 9.05708 11.2791 9.13533 11.0958C9.21357 10.9124 9.34536 10.7559 9.51414 10.6457C9.68291 10.5356 9.88113 10.4768 10.0839 10.4768C10.2202 10.4768 10.3551 10.5033 10.4808 10.5549C10.6066 10.6064 10.7206 10.682 10.8163 10.7771C10.9119 10.8723 10.9874 10.9851 11.0382 11.109C11.089 11.233 11.1141 11.3656 11.1122 11.4992Z" fill="#E6E6E6"/>
<path d="M15.6386 11.4992C15.6356 11.6979 15.5729 11.8914 15.4581 12.0552C15.3434 12.2191 15.1818 12.346 14.9937 12.4201C14.8055 12.4941 14.5992 12.5121 14.4007 12.4716C14.2022 12.431 14.0204 12.3339 13.8781 12.1924C13.7357 12.0509 13.6392 11.8713 13.6007 11.6761C13.5622 11.481 13.5834 11.2791 13.6617 11.0958C13.7399 10.9124 13.8717 10.7559 14.0405 10.6457C14.2093 10.5356 14.4075 10.4768 14.6102 10.4768C14.7465 10.4768 14.8815 10.5033 15.0072 10.5549C15.1329 10.6064 15.2469 10.682 15.3426 10.7771C15.4383 10.8723 15.5138 10.9851 15.5646 11.109C15.6154 11.233 15.6405 11.3656 15.6386 11.4992Z" fill="#E6E6E6"/>
<path d="M20.1685 11.4994C20.1685 11.6994 20.108 11.895 19.9946 12.0614C19.8812 12.2277 19.72 12.3574 19.5314 12.4339C19.3428 12.5105 19.1353 12.5305 18.9352 12.4915C18.735 12.4525 18.5511 12.3561 18.4068 12.2146C18.2624 12.0732 18.1641 11.8929 18.1243 11.6967C18.0845 11.5005 18.1049 11.2971 18.183 11.1123C18.2612 10.9274 18.3934 10.7694 18.5631 10.6583C18.7329 10.5471 18.9324 10.4878 19.1365 10.4878C19.2722 10.4873 19.4066 10.5132 19.532 10.5638C19.6574 10.6145 19.7714 10.689 19.8673 10.783C19.9632 10.877 20.0392 10.9887 20.0909 11.1117C20.1426 11.2346 20.169 11.3664 20.1685 11.4994Z" fill="#E6E6E6"/>
<path d="M24.6942 11.4992C24.6913 11.6979 24.6285 11.8914 24.5138 12.0552C24.3991 12.2191 24.2375 12.346 24.0493 12.4201C23.8612 12.4941 23.6549 12.5121 23.4564 12.4716C23.2579 12.431 23.0761 12.3339 22.9337 12.1924C22.7914 12.0509 22.6949 11.8713 22.6564 11.6761C22.6179 11.481 22.6391 11.2791 22.7174 11.0958C22.7956 10.9124 22.9274 10.7559 23.0962 10.6457C23.2649 10.5356 23.4632 10.4768 23.6659 10.4768C23.8022 10.4768 23.9371 10.5033 24.0629 10.5549C24.1886 10.6064 24.3026 10.682 24.3983 10.7771C24.494 10.8723 24.5694 10.9851 24.6202 11.109C24.671 11.233 24.6962 11.3656 24.6942 11.4992Z" fill="#E6E6E6"/>
<path d="M2.05663 16.7414C2.05663 16.9407 1.99632 17.1356 1.88333 17.3013C1.77034 17.4671 1.60973 17.5963 1.42183 17.6726C1.23393 17.7489 1.02717 17.7688 0.827701 17.7299C0.628228 17.691 0.444999 17.595 0.301187 17.4541C0.157375 17.3131 0.059437 17.1335 0.0197592 16.938C-0.0199185 16.7425 0.00044555 16.5398 0.0782763 16.3556C0.156107 16.1714 0.287909 16.014 0.457014 15.9033C0.62612 15.7925 0.824934 15.7334 1.02832 15.7334C1.30104 15.7334 1.5626 15.8396 1.75544 16.0286C1.94829 16.2176 2.05663 16.474 2.05663 16.7414Z" fill="#E6E6E6"/>
<path d="M6.58646 16.7414C6.58719 16.9416 6.52728 17.1375 6.41433 17.3043C6.30137 17.4712 6.14045 17.6014 5.95195 17.6785C5.76344 17.7556 5.55582 17.7762 5.35539 17.7375C5.15496 17.6989 4.97073 17.6029 4.82603 17.4615C4.68134 17.3202 4.58268 17.14 4.54256 16.9436C4.50244 16.7473 4.52266 16.5437 4.60066 16.3587C4.67866 16.1736 4.81093 16.0155 4.98073 15.9041C5.15052 15.7928 5.35019 15.7334 5.55446 15.7334C5.68981 15.7329 5.82392 15.7587 5.94911 15.8091C6.07429 15.8595 6.18809 15.9337 6.28397 16.0273C6.37985 16.121 6.45592 16.2323 6.50783 16.3548C6.55974 16.4773 6.58646 16.6087 6.58646 16.7414Z" fill="#E6E6E6"/>
<path d="M11.1123 16.7414C11.1123 16.9407 11.052 17.1356 10.939 17.3013C10.826 17.4671 10.6654 17.5963 10.4775 17.6726C10.2896 17.7489 10.0828 17.7688 9.88337 17.7299C9.68389 17.691 9.50066 17.595 9.35685 17.4541C9.21304 17.3131 9.1151 17.1335 9.07542 16.938C9.03575 16.7425 9.05611 16.5398 9.13394 16.3556C9.21177 16.1714 9.34357 16.014 9.51268 15.9033C9.68178 15.7925 9.8806 15.7334 10.084 15.7334C10.3567 15.7334 10.6183 15.8396 10.8111 16.0286C11.004 16.2176 11.1123 16.474 11.1123 16.7414Z" fill="#E6E6E6"/>
<path d="M15.6387 16.7414C15.6387 16.9407 15.5784 17.1356 15.4654 17.3013C15.3524 17.4671 15.1918 17.5963 15.0039 17.6726C14.816 17.7489 14.6092 17.7688 14.4097 17.7299C14.2103 17.691 14.027 17.595 13.8832 17.4541C13.7394 17.3131 13.6415 17.1335 13.6018 16.938C13.5621 16.7425 13.5825 16.5398 13.6603 16.3556C13.7381 16.1714 13.8699 16.014 14.039 15.9033C14.2082 15.7925 14.407 15.7334 14.6103 15.7334C14.8831 15.7334 15.1446 15.8396 15.3375 16.0286C15.5303 16.2176 15.6387 16.474 15.6387 16.7414Z" fill="#E6E6E6"/>
<path d="M19.1362 17.7493C19.7041 17.7493 20.1645 17.298 20.1645 16.7414C20.1645 16.1847 19.7041 15.7334 19.1362 15.7334C18.5683 15.7334 18.1079 16.1847 18.1079 16.7414C18.1079 17.298 18.5683 17.7493 19.1362 17.7493Z" fill="#E6E6E6"/>
<path d="M23.666 17.7493C24.2339 17.7493 24.6943 17.298 24.6943 16.7414C24.6943 16.1847 24.2339 15.7334 23.666 15.7334C23.0981 15.7334 22.6377 16.1847 22.6377 16.7414C22.6377 17.298 23.0981 17.7493 23.666 17.7493Z" fill="#E6E6E6"/>
<path d="M2.05663 21.987C2.05663 22.1863 1.99632 22.3812 1.88333 22.5469C1.77034 22.7127 1.60973 22.8419 1.42183 22.9182C1.23393 22.9945 1.02717 23.0144 0.827701 22.9755C0.628228 22.9366 0.444999 22.8407 0.301187 22.6997C0.157375 22.5587 0.059437 22.3791 0.0197592 22.1836C-0.0199185 21.9881 0.00044555 21.7854 0.0782763 21.6012C0.156107 21.4171 0.287909 21.2596 0.457014 21.1489C0.62612 21.0381 0.824934 20.979 1.02832 20.979C1.30104 20.979 1.5626 21.0852 1.75544 21.2742C1.94829 21.4633 2.05663 21.7196 2.05663 21.987Z" fill="#E6E6E6"/>
<path d="M6.58646 21.987C6.58719 22.1872 6.52728 22.3831 6.41433 22.5499C6.30137 22.7168 6.14045 22.847 5.95195 22.9241C5.76344 23.0012 5.55582 23.0218 5.35539 22.9831C5.15496 22.9445 4.97073 22.8485 4.82603 22.7071C4.68134 22.5658 4.58268 22.3856 4.54256 22.1893C4.50244 21.9929 4.52266 21.7894 4.60066 21.6043C4.67866 21.4193 4.81093 21.2611 4.98073 21.1497C5.15052 21.0384 5.35019 20.979 5.55446 20.979C5.68981 20.9785 5.82392 21.0043 5.94911 21.0547C6.07429 21.1051 6.18809 21.1793 6.28397 21.273C6.37985 21.3666 6.45592 21.4779 6.50783 21.6004C6.55974 21.7229 6.58646 21.8543 6.58646 21.987Z" fill="#E6E6E6"/>
<path d="M11.1123 21.987C11.1123 22.1863 11.052 22.3812 10.939 22.5469C10.826 22.7127 10.6654 22.8419 10.4775 22.9182C10.2896 22.9945 10.0828 23.0144 9.88337 22.9755C9.68389 22.9366 9.50066 22.8407 9.35685 22.6997C9.21304 22.5587 9.1151 22.3791 9.07542 22.1836C9.03575 21.9881 9.05611 21.7854 9.13394 21.6012C9.21177 21.4171 9.34357 21.2596 9.51268 21.1489C9.68178 21.0381 9.8806 20.979 10.084 20.979C10.3567 20.979 10.6183 21.0852 10.8111 21.2742C11.004 21.4633 11.1123 21.7196 11.1123 21.987Z" fill="#E6E6E6"/>
<path d="M15.6387 21.987C15.6387 22.1863 15.5784 22.3812 15.4654 22.5469C15.3524 22.7127 15.1918 22.8419 15.0039 22.9182C14.816 22.9945 14.6092 23.0144 14.4097 22.9755C14.2103 22.9366 14.027 22.8407 13.8832 22.6997C13.7394 22.5587 13.6415 22.3791 13.6018 22.1836C13.5621 21.9881 13.5825 21.7854 13.6603 21.6012C13.7381 21.4171 13.8699 21.2596 14.039 21.1489C14.2082 21.0381 14.407 20.979 14.6103 20.979C14.8831 20.979 15.1446 21.0852 15.3375 21.2742C15.5303 21.4633 15.6387 21.7196 15.6387 21.987Z" fill="#E6E6E6"/>
<path d="M19.1362 22.9949C19.7041 22.9949 20.1645 22.5436 20.1645 21.987C20.1645 21.4303 19.7041 20.979 19.1362 20.979C18.5683 20.979 18.1079 21.4303 18.1079 21.987C18.1079 22.5436 18.5683 22.9949 19.1362 22.9949Z" fill="#E6E6E6"/>
<path d="M23.666 22.9949C24.2339 22.9949 24.6943 22.5436 24.6943 21.987C24.6943 21.4303 24.2339 20.979 23.666 20.979C23.0981 20.979 22.6377 21.4303 22.6377 21.987C22.6377 22.5436 23.0981 22.9949 23.666 22.9949Z" fill="#E6E6E6"/>
</svg>
